<svg id="Ñëîé_1" data-name="Ñëîé 1" xmlns="http://www.w3.org/2000/svg" xmlns:xlink="http://www.w3.org/1999/xlink" viewBox="0 0 400 400"><defs><style>.cls-1{fill:#d4ecff;}.cls-2{fill:#ff2c9c;}.cls-3{fill:#5793ce;}.cls-4{fill:#396caa;}.cls-5{fill:url(#Áåçûìÿííûé_ãðàäèåíò_242);}.cls-6{fill:#eaeaea;}.cls-7{fill:#173d7a;}.cls-8{fill:#fdd762;}.cls-9{fill:#ffc2b0;}.cls-10,.cls-19{fill:#fff;}.cls-11{fill:#ea9c92;}.cls-12{fill:#d3008d;}.cls-13{fill:#274f89;}.cls-14{fill:#e8a200;}.cls-15{fill:#f9bf30;}.cls-16{fill:#ededed;}.cls-17{fill:#e9f6ff;}.cls-18{fill:#aedeed;}.cls-19{opacity:0.4;}.cls-20{fill:#b2d3ea;}.cls-21{fill:#6614cf;}.cls-22{fill:#8a2ae3;}.cls-23{fill:#983be9;}.cls-24{fill:#b45ef4;}.cls-25{fill:#d8892b;}.cls-26{fill:#d29fff;}</style><radialGradient id="Áåçûìÿííûé_ãðàäèåíò_242" cx="247.56" cy="166.63" r="46.8" gradientUnits="userSpaceOnUse"><stop offset="0" stop-color="#01c8ef"/><stop offset="0.09" stop-color="#03bee9"/><stop offset="0.24" stop-color="#08a5d7"/><stop offset="0.43" stop-color="#107bbb"/><stop offset="0.45" stop-color="#1177b8"/><stop offset="1" stop-color="#112564"/></radialGradient></defs><path class="cls-1" d="M273.44,315.59l-.51-.87L287.86,306a5.86,5.86,0,0,1,6,0l12.34,7.37-.51.86-12.34-7.37a4.85,4.85,0,0,0-4.95,0Z"/><path class="cls-1" d="M317.86,313.17l-.51-.86,38.74-22.89a1.18,1.18,0,0,0,.59-1,1.2,1.2,0,0,0-.59-1l-12.86-7.9.53-.85,12.85,7.89a2.2,2.2,0,0,1,0,3.79Z"/><path class="cls-1" d="M275.68,281.64l-.5-.86L312.93,259a1.24,1.24,0,0,0,.63-1.08,1.27,1.27,0,0,0-.63-1.08l-20-11.47a8.87,8.87,0,0,1-4.43-7.66V172a8.2,8.2,0,0,1,3.59-6.79l3-2,.57.83-3,2a7.19,7.19,0,0,0-3.16,6v65.74a7.83,7.83,0,0,0,3.93,6.79l20,11.47a2.27,2.27,0,0,1,1.13,1.95,2.23,2.23,0,0,1-1.13,2Z"/><path class="cls-2" d="M273.18,302.4a1,1,0,0,1-.5-1.86l14.93-8.75a6.33,6.33,0,0,1,6.48,0l12.34,7.37a1,1,0,0,1-1,1.71l-12.34-7.37a4.36,4.36,0,0,0-4.44,0l-14.93,8.75A.94.94,0,0,1,273.18,302.4Z"/><path class="cls-1" d="M252,349.2l-83.07-48c-2.89-1.67-2.53-4.58.8-6.51h0c3.34-1.92,8.38-2.13,11.27-.46l83.08,48c2.89,1.67,2.52,4.58-.81,6.5h0C259.94,350.66,254.9,350.87,252,349.2Z"/><path class="cls-1" d="M331.47,222.3a15.72,15.72,0,0,0-2-1h0l-3.82-1.7.29.67a24.7,24.7,0,0,0-9-.09l.18-.74-4.49,2h0a13.75,13.75,0,0,0-1.68.82c-5.63,3.25-5.63,8.52,0,11.77s14.77,3.25,20.4,0S337.1,225.55,331.47,222.3Z"/><path class="cls-3" d="M326.05,225.37a10.59,10.59,0,0,1-9.56,0c-2.64-1.53-2.64-4,0-5.52a10.53,10.53,0,0,1,9.56,0C328.69,221.37,328.69,223.84,326.05,225.37Z"/><path class="cls-3" d="M321.27,223.66h0a2.3,2.3,0,0,1-2.3-2.3v-29h4.6v29A2.3,2.3,0,0,1,321.27,223.66Z"/><path class="cls-3" d="M322.89,193.37a3.66,3.66,0,0,1-3.32,0,1,1,0,0,1,0-1.91,3.66,3.66,0,0,1,3.32,0A1,1,0,0,1,322.89,193.37Z"/><path class="cls-1" d="M321.27,193.32h0a1.87,1.87,0,0,1-1.86-1.87v-27.3h3.72v27.3A1.87,1.87,0,0,1,321.27,193.32Z"/><path class="cls-4" d="M348.05,178.46v-1.07l1.51-.22,1.69-1.26a1.14,1.14,0,0,1,1.12,0l1.24.73,1.24-.18v1.08h0c0,.12-.09.24-.28.33l-3.94,1.75a1.23,1.23,0,0,1-1,0l-1.31-.75a.39.39,0,0,1-.22-.32Z"/><path class="cls-3" d="M348.21,177.1l3-2.27a1.12,1.12,0,0,1,1.12,0l2.26,1.31c.32.18.29.48-.07.64l-3.94,1.75a1.2,1.2,0,0,1-1,0l-1.31-.75C348,177.54,348,177.28,348.21,177.1Z"/><path class="cls-1" d="M343.09,182.26a2.44,2.44,0,0,0,1.21-.3l4.73-2.73a.54.54,0,0,0-.55-.94L343.76,181a1.57,1.57,0,0,1-1.34,0l-7.85-4.55a.54.54,0,0,0-.74.2.52.52,0,0,0,.2.74l7.84,4.55A2.48,2.48,0,0,0,343.09,182.26Z"/><polygon class="cls-5" points="297.69 172.27 305.27 167.87 301.03 165.95 297.39 168.52 297.69 172.27"/><path class="cls-3" d="M346.38,165.73a10.58,10.58,0,0,1-1.28-.79L329,153.1c-2.92-2.14-5.92-2.69-8.25-1.51l-.17.1h0L298.2,164.63l2,.67,7.81,3.54,10.63,7.54,8.39,4.45.38.08c2-1.64,4.15-3.06,5.35-5.46,2.08-3.63,7.86-4.67,11.26-7.62.34.22.69.42,1,.6A7.74,7.74,0,0,0,346.38,165.73Z"/><path class="cls-4" d="M353.46,160.39a1.46,1.46,0,0,0-.91.32h0l-21.83,12.63.8,3.27.82-.39c-1.25,1.95-3.17,3.23-4.91,4.69l2.47.53L351.27,169l.3-.13a5.46,5.46,0,0,0,.82-.53l0,0h0c1.63-1.25,2.55-3.44,2.55-6.17v-.26A1.5,1.5,0,0,0,353.46,160.39Z"/><path class="cls-6" d="M323.56,151a9.12,9.12,0,0,1,4.29,1.39A9.12,9.12,0,0,0,323.56,151Z"/><path class="cls-3" d="M333.51,174.36v-.25a1.51,1.51,0,0,0-3,0v.25c0,2-.63,3.48-1.75,4s-3.16.17-5.11-1.25l-16.15-11.84c-2.49-1.82-5-2.48-7.17-1.91l13.34-7.74-15.46,9,2,.67,7.81,3.54,10.63,7.54,8.39,4.45.38.08c2-1.64,4.15-3.06,5.35-5.46a6.57,6.57,0,0,1,.73-1S333.51,174.39,333.51,174.36Z"/><path class="cls-1" d="M327,182.17a9.75,9.75,0,0,1-5.62-2.12l-16.15-11.83c-1.95-1.43-3.86-1.9-5.12-1.26s-1.75,2-1.75,4a1.5,1.5,0,0,1-3,0c0-3.17,1.24-5.62,3.4-6.72,2.32-1.17,5.32-.62,8.24,1.52l16.15,11.83c1.95,1.43,3.86,1.9,5.11,1.26s1.75-2,1.75-4v-.26a1.5,1.5,0,1,1,3,0v.26c0,3.17-1.23,5.62-3.39,6.72A5.8,5.8,0,0,1,327,182.17Z"/><path class="cls-7" d="M314.34,208.64s-3-1.54-4.91.75-4.54,7.68-4.63,11.32,2.89,3.4,4.65,2.54,6.92-8.34,7.23-9.8a5.1,5.1,0,0,0-.86-3.83C315.32,209.23,314.34,208.64,314.34,208.64Z"/><path class="cls-3" d="M315,207.91l.14,3.15a1.79,1.79,0,0,1-.89,1.64,3.51,3.51,0,0,1-2.35.36c-2.29-.37-2.49-1-2.66-4.17S315,207.91,315,207.91Z"/><path class="cls-7" d="M303.2,202.58s-3-1.54-4.91.75-4.54,7.68-4.62,11.32,2.88,3.4,4.64,2.54,6.92-8.34,7.23-9.8a5.1,5.1,0,0,0-.86-3.83C304.18,203.17,303.2,202.58,303.2,202.58Z"/><path class="cls-3" d="M303.86,201.85,304,205a1.77,1.77,0,0,1-.89,1.64,3.49,3.49,0,0,1-2.34.36c-2.3-.37-2.5-1-2.66-4.17S303.86,201.85,303.86,201.85Z"/><path class="cls-8" d="M331,144c-.9-14.65-15.87,2.16-15.87,2.16l-10.24,10-9.22,10.13a9.1,9.1,0,0,0-2.3,7.31L297.12,202a2.78,2.78,0,0,0,2.8,2.43,9.31,9.31,0,0,0,1.38-.12,3.47,3.47,0,0,0,3.08-3.69l-.68-26.57,19.37-11.68S331.91,158.62,331,144Z"/><path class="cls-8" d="M342.15,149.56c-.9-14.66-15.87,2.15-15.87,2.15l-10.24,10-9.23,10.14a9.08,9.08,0,0,0-2.29,7.3l3.73,28.41a2.8,2.8,0,0,0,2.8,2.43,9.43,9.43,0,0,0,1.39-.12,3.47,3.47,0,0,0,3.08-3.68l-.68-26.58L334.21,168S343.05,164.21,342.15,149.56Z"/><path class="cls-2" d="M333.3,102.52c11.34,4.71,11.12,11.41,11.12,11.41s-2.23,24.59-1.47,41c.32,6.86-36.48,7.39-31-10.93,6.47-21.6,4.05-39.08,7.07-41.72S330.36,101.3,333.3,102.52Z"/><ellipse class="cls-9" cx="331.28" cy="107.01" rx="4.31" ry="5.85" transform="translate(145.02 401.12) rotate(-75.56)"/><path class="cls-10" d="M332.14,112a8.7,8.7,0,0,1-2.07-.26,7.57,7.57,0,0,1-4-2.44,4.31,4.31,0,0,1-1-3.86c.66-2.59,4-4,7.4-3.1a7.61,7.61,0,0,1,4,2.44,4.1,4.1,0,0,1-1.74,6.74A6.93,6.93,0,0,1,332.14,112Zm-1.73-8.84c-2.11,0-3.87,1-4.27,2.55a3.27,3.27,0,0,0,.79,2.9,6.53,6.53,0,0,0,3.41,2.08,6.45,6.45,0,0,0,4-.17,3.28,3.28,0,0,0,2.1-2.16h0a3.31,3.31,0,0,0-.79-2.9,6.52,6.52,0,0,0-3.41-2.07A7.25,7.25,0,0,0,330.41,103.13Z"/><path class="cls-9" d="M328.75,102a30.08,30.08,0,0,1-.1,4c-.06,1.13,3.89,2.19,4.92,1.16s.61-2.08.86-5.93S328.75,102,328.75,102Z"/><path class="cls-11" d="M334.43,101.29s-1,3.57-5.78,4.93l.07-3.24Z"/><path class="cls-9" d="M337.47,92.23A8.73,8.73,0,1,1,326.83,86,8.73,8.73,0,0,1,337.47,92.23Z"/><path class="cls-11" d="M331,94.73s-4.81,2.06-8.14,2.09-2.6-2.77-2.6-2.77l9.89-1.43Z"/><path class="cls-8" d="M321.89,95.28s4.19-1.78,7.86-1A3.76,3.76,0,0,1,332,95.56a1.28,1.28,0,0,0,.68.48c.65.15,1.71-2.55,3-2.61s2.11.83,1.07,2.49-.68,3.53-.21,3.8,5.55-3.62,1.08-12.48S321.74,83.16,320,85c0,0-1.86,1.62-3.37.18C316.6,85.13,314.9,97.84,321.89,95.28Z"/><path class="cls-9" d="M338.05,131.9v6.64a2.73,2.73,0,0,1-.88,2L323.52,153l1.55,2.37,18-13.07a3.68,3.68,0,0,0,1.5-2.58l1.21-11.59Z"/><path class="cls-2" d="M343.45,110.61s4.15,6.23,5.69,22.62c0,0-7.08,2.29-11.09,1S343.45,110.61,343.45,110.61Z"/><path class="cls-12" d="M337.29,118.49a115,115,0,0,0-1.71,12.75,2.59,2.59,0,0,0,1.71,2.51h0Z"/><path class="cls-7" d="M333.75,161.63l-3-.4L311.26,150a2.71,2.71,0,0,0-2.44.1l-13.8,8-1.82-.24v1.82h0a.71.71,0,0,0,.42.64L315.69,173a2.71,2.71,0,0,0,2.44-.1l15-8.67a1,1,0,0,0,.59-.82h0Z"/><path class="cls-4" d="M319.12,154.53l-1.39-.8H302.52l-7.5,4.32-1.82-.24v1.82h0a.71.71,0,0,0,.42.64L315.69,173a2.3,2.3,0,0,0,1.26.24Z"/><path class="cls-3" d="M294,157.92l-.81-.11v1.82h0a.71.71,0,0,0,.42.64l.39.22Z"/><path class="cls-13" d="M315.91,173.11A2.82,2.82,0,0,0,318,173V169.9h-2.07Z"/><path class="cls-10" d="M315.69,171.2l-22.07-12.75c-.63-.36-.55-1,.17-1.4l15-8.68a2.74,2.74,0,0,1,2.44-.1L333.33,161c.63.36.55,1-.17,1.4l-15,8.68A2.74,2.74,0,0,1,315.69,171.2Z"/><path class="cls-1" d="M315.32,169.27,297,158.67c-.52-.3-.46-.82.14-1.17l8.05-4.53a2.28,2.28,0,0,1,2-.08l18.35,10.59c.52.3.46.83-.14,1.17l-8.06,4.53A2.26,2.26,0,0,1,315.32,169.27Z"/><path class="cls-9" d="M309.68,148l-.23,1.53a11.11,11.11,0,0,0,.1,3.9l.27,1.34a1.89,1.89,0,0,0,1.51,1.49h0a1,1,0,0,0,1.22-.91l.37-3.26s.83,1.09,1.23,1.09-.45-3.26-1.36-5.1S309.68,148,309.68,148Z"/><path class="cls-9" d="M317.16,123.75l-2.37,4.69a9.22,9.22,0,0,0-1,3.56l-1,16-3.11-.08-1.42-18a7.06,7.06,0,0,1,.08-1.66l1.62-9.13Z"/><path class="cls-7" d="M314.94,172.42,313.09,170l-19.46-11.26a2.72,2.72,0,0,1-1.13-2.16l0-15.94-1.12-1.46,1.05-.61h0a.72.72,0,0,1,.77.05l22,12.77a2.69,2.69,0,0,1,1.13,2.16l0,17.35a1,1,0,0,1-.41.93h0Z"/><path class="cls-4" d="M301.48,163.28l-1.38-.8-7.59-13.18v-8.66l-1.12-1.46,1.05-.61h0a.72.72,0,0,1,.77.05l22,12.77a2.23,2.23,0,0,1,.83,1Z"/><path class="cls-3" d="M291.9,139.83l-.5-.65,1.05-.61h0a.72.72,0,0,1,.77.05l.39.22Z"/><path class="cls-13" d="M315.47,151.53a2.82,2.82,0,0,1,.92,1.86l-2.15,1.24-1-1.79Z"/><path class="cls-3" d="M314.22,152l-22.05-12.77c-.63-.37-1.13,0-1.14.85v17.35a2.69,2.69,0,0,0,1.12,2.16l22.06,12.77c.62.36,1.13,0,1.13-.85l0-17.35A2.68,2.68,0,0,0,314.22,152Z"/><path class="cls-9" d="M325.07,155.36l-.36.73a4.8,4.8,0,0,1-1.84,2l-2.19,1.35a2.19,2.19,0,0,1-2.24,0l-.07,0a1.31,1.31,0,0,1-.19-2l2.29-2.35s-1.29,1-1.65.58,1.25-1.71,2.41-1.75a4.65,4.65,0,0,0,2.29-1Z"/><path class="cls-2" d="M319.26,102.27s-8.39,9.13-11.78,17.51a17.14,17.14,0,0,0,9.9,7.2C324.4,129,319.26,102.27,319.26,102.27Z"/><path class="cls-12" d="M315.8,126.44l1.36-13.14L314,125.61A18.69,18.69,0,0,0,315.8,126.44Z"/><path class="cls-10" d="M325.55,100.43l-2.26-.62a5.45,5.45,0,0,0,2.65,2.12c1.57.43,1.82-.9,1.82-.9Z"/><path class="cls-2" d="M267.05,95.1,177.54,43.41c-2.94-1.69-5.61-1.74-7.63-.46v0l-11.23,6.5,7.53,1.41c0,.38,0,.77,0,1.18V263.15c0,8.38,5.09,18.11,11.38,21.74l88.26,51-2.52,7.82,11-6.37h0c2.55-1.31,4.18-4.6,4.18-9.33V116.85C278.44,108.47,273.34,98.73,267.05,95.1Z"/><polygon class="cls-1" points="351.19 276.35 337.75 268.58 324.31 276.35 337.75 284.11 351.19 276.35"/><polygon class="cls-14" points="337.75 276.91 337.75 268.16 353.81 258.89 353.81 267.64 337.75 276.91"/><polygon class="cls-15" points="337.75 268.16 321.69 258.89 321.69 267.64 337.75 276.91 337.75 268.16"/><polygon class="cls-8" points="353.81 258.89 337.75 249.62 321.69 258.89 337.75 268.16 353.81 258.89"/><path class="cls-10" d="M298.09,157.9c0,1.38-1,1.93-2.16,1.25a4.77,4.77,0,0,1-2.15-3.74c0-1.37,1-1.93,2.15-1.24A4.78,4.78,0,0,1,298.09,157.9Z"/><path class="cls-2" d="M275.43,275.48a1,1,0,0,1-.5-1.86l37.75-21.74a.74.74,0,0,0,.38-.65.72.72,0,0,0-.38-.64l-20-11.48A9.34,9.34,0,0,1,288,231V165.29a8.7,8.7,0,0,1,3.81-7.21l3-2a1,1,0,0,1,1.13,1.65l-3,2a6.72,6.72,0,0,0-2.94,5.56V231a7.35,7.35,0,0,0,3.68,6.36l20,11.47a2.75,2.75,0,0,1,0,4.77l-37.75,21.73A1,1,0,0,1,275.43,275.48Z"/><path class="cls-12" d="M166.16,263.15c0,8.38,5.09,18.11,11.38,21.74l88.26,51-2.52,7.82,11-6.37h0c2.55-1.31,4.18-4.6,4.18-9.33V116.85a28.28,28.28,0,0,0-3.62-13.15L166.16,166.43Z"/><path class="cls-2" d="M255.76,343.13l-89.51-51.69c-6.29-3.63-11.38-13.37-11.38-21.75V58.56c0-8.38,5.09-12.23,11.38-8.6l89.51,51.69c6.29,3.63,11.38,13.36,11.38,21.75V334.52C267.14,342.9,262.05,346.76,255.76,343.13Z"/><polygon class="cls-12" points="169.67 116.08 162.74 111.31 160.03 102.44 157.32 108.19 154.86 107.04 154.86 111.93 155.65 113.17 154.86 116.7 154.86 120.06 160.03 119.37 165.99 127.04 164.41 118.23 169.67 116.08"/><path class="cls-10" d="M254.09,336.14l-86-49.67c-4.67-2.7-8.46-9.94-8.46-16.17V62.18c0-6.23,3.79-9.1,8.46-6.4l86,49.67c4.68,2.7,8.46,9.93,8.46,16.16V329.74C262.55,336,258.77,338.83,254.09,336.14Z"/><path class="cls-16" d="M218.91,272.21l-42.22-24.37V145.21l19.89,11.48a44.65,44.65,0,0,1,22.33,38.67Z"/><path class="cls-1" d="M161.59,135.28h0c-4.26-2.54-10.18-2.23-16.72,1.55-12.95,7.47-23.48,25.71-23.48,40.66v10.79h0l.45.26,42.29,24.88.64-12.91.53-5,2.24-7.78.26-1.19,4.81-9.7,3.79-4.73,3.07-3.66,7.48-5.89.66-.49,3.68-1.58,4.95-1.29h3.86l4.31.76Z"/><path class="cls-1" d="M167,235l1.37-.79V185.1a9.83,9.83,0,0,0-1.37,3.48Z"/><polygon class="cls-1" points="209.73 259.67 166.99 235.04 167.43 188.52 169.06 183.82 174.01 175.31 179.86 168.37 185.14 164.15 190.84 160.68 201.19 159.5 206.67 162.6 209.73 167.28 210.69 174.47 210.36 252.23 209.73 259.67"/><path class="cls-3" d="M161.6,135.29c-3.57-2.13-8.29-2.25-13.57,0l43.55,25.14,4.67-1.21h3.86l4.31.76-42.83-24.68Z"/><path class="cls-17" d="M149.05,134.87a26.43,26.43,0,0,0-4.17,2c-.95.55-1.89,1.16-2.82,1.82l43.42,25.07,1.48-1.17.66-.49,3.68-1.58,1.47-.39Z"/><path class="cls-10" d="M179.85,168.16l5.9-4.65-43.4-25.06a42.59,42.59,0,0,0-5.64,4.8Z"/><path class="cls-3" d="M211.1,258.87l-1.37.8V175.81c0-14.08-9.92-19.8-22.11-12.76s-22.11,24.21-22.11,38.28v11.31l-1.37.79v-11.3c0-14.95,10.54-33.19,23.48-40.67S211.1,160.07,211.1,175Z"/><polygon class="cls-18" points="134.37 169.48 131.96 179.32 133.16 195.21 130.11 193.41 126.21 184.78 129.63 173.86 134.37 169.48"/><path class="cls-19" d="M204.3,232.42a1.66,1.66,0,0,1-.8-.23l-31.08-17.95a3.8,3.8,0,0,1-1.64-3.07V186.71a1.71,1.71,0,0,1,.73-1.55,1.38,1.38,0,0,1,1.41.07l31.08,18a3.82,3.82,0,0,1,1.63,3.07v24.46a1.69,1.69,0,0,1-.73,1.55A1.15,1.15,0,0,1,204.3,232.42ZM172.12,186a.2.2,0,0,0-.11,0c-.1.06-.23.27-.23.68v24.46a2.81,2.81,0,0,0,1.14,2.21L204,231.32c.08.05.28.14.4.07s.23-.27.23-.68V206.25a2.8,2.8,0,0,0-1.13-2.2l-31.08-18A.63.63,0,0,0,172.12,186Z"/><path class="cls-20" d="M182.07,215.24l-.22-.13a3.51,3.51,0,0,1-1.47-2.8V200.65c0-1.08.66-1.57,1.47-1.1l.22.12a3.51,3.51,0,0,1,1.46,2.8v11.66C183.53,215.21,182.88,215.71,182.07,215.24Z"/><path class="cls-20" d="M188.32,218.85l-.22-.13a3.51,3.51,0,0,1-1.47-2.8V209.1c0-1.08.66-1.58,1.47-1.11l.22.12a3.53,3.53,0,0,1,1.46,2.81v6.82C189.78,218.82,189.13,219.32,188.32,218.85Z"/><path class="cls-4" d="M194.57,222.46l-.22-.13a3.51,3.51,0,0,1-1.47-2.8V203.29c0-1.08.66-1.58,1.47-1.11l.22.13a3.51,3.51,0,0,1,1.47,2.8v16.24C196,222.43,195.38,222.92,194.57,222.46Z"/><path class="cls-16" d="M253.85,223.42,226.5,207.63a5.27,5.27,0,0,1-2.2-4.2V157.66c0-1.62,1-2.36,2.2-1.66l27.35,15.79a5.25,5.25,0,0,1,2.2,4.21v45.76C256.05,223.38,255.07,224.13,253.85,223.42Z"/><path class="cls-3" d="M251.14,165.73,223.8,149.94a1.42,1.42,0,0,0-1.42-.11v0l-2.65,1.54,1.87.68v45.34a5.27,5.27,0,0,0,2.2,4.21l26.14,15.09V219l2.68-1.55h0a2,2,0,0,0,.75-1.76V169.94A5.29,5.29,0,0,0,251.14,165.73Z"/><path class="cls-1" d="M248.44,218.92l-27.35-15.79a5.27,5.27,0,0,1-2.2-4.2V153.16c0-1.62,1-2.36,2.2-1.66l27.35,15.79a5.25,5.25,0,0,1,2.2,4.21v45.76C250.64,218.88,249.66,219.63,248.44,218.92Z"/><path class="cls-10" d="M248.44,167.29,221.09,151.5a1.28,1.28,0,0,0-1.7.12,1.61,1.61,0,0,1,1,.24l27.35,15.79a5.27,5.27,0,0,1,2.2,4.21v45.76a2.21,2.21,0,0,1-.5,1.55c.73-.06,1.23-.76,1.23-1.91V171.5A5.25,5.25,0,0,0,248.44,167.29Z"/><path class="cls-16" d="M253.85,285.26,226.5,269.47a5.29,5.29,0,0,1-2.2-4.21V219.5c0-1.62,1-2.37,2.2-1.67l27.35,15.79a5.28,5.28,0,0,1,2.2,4.21v45.76C256.05,285.22,255.07,286,253.85,285.26Z"/><path class="cls-12" d="M251.14,227.57,223.8,211.78a1.4,1.4,0,0,0-1.42-.12h0l-2.65,1.53,1.87.68v45.35a5.25,5.25,0,0,0,2.2,4.2l26.14,15.09v2.34l2.68-1.54h0a2,2,0,0,0,.75-1.75V231.77A5.25,5.25,0,0,0,251.14,227.57Z"/><path class="cls-2" d="M248.44,280.76,221.09,265a5.29,5.29,0,0,1-2.2-4.21V215c0-1.62,1-2.37,2.2-1.67l27.35,15.79a5.28,5.28,0,0,1,2.2,4.21v45.76C250.64,280.72,249.66,281.46,248.44,280.76Z"/><path class="cls-10" d="M248.44,229.12l-27.35-15.79a1.3,1.3,0,0,0-1.7.12,1.55,1.55,0,0,1,1,.25l27.35,15.79a5.25,5.25,0,0,1,2.2,4.2v45.77a2.23,2.23,0,0,1-.5,1.55c.73-.06,1.23-.76,1.23-1.92V233.33A5.28,5.28,0,0,0,248.44,229.12Z"/><path class="cls-1" d="M70.32,305.14l24-13.54a4.61,4.61,0,0,1,4.14.21l15.29,9.05c1.22.72,1.34,1.79.28,2.39L90,316.79a4.58,4.58,0,0,1-4.14-.21l-15.29-9C69.38,306.82,69.26,305.74,70.32,305.14Z"/><ellipse class="cls-1" cx="47.36" cy="272.49" rx="19.23" ry="11.1"/><path class="cls-21" d="M36.49,138.25s.49,10.19,1.27,17S55,150,55,150v-7.8Z"/><path class="cls-7" d="M45.28,265.09c.24.62,4.52,5.82,8.79,7.13a9.89,9.89,0,0,0,3.93.54,1.3,1.3,0,0,0,1-1.73,16.22,16.22,0,0,0-8.2-9C43.6,258.4,45.28,265.09,45.28,265.09Z"/><path class="cls-7" d="M43.85,267.09A35.62,35.62,0,0,1,46,274c.3,1.93-.76,4.43-1.63,6.09a1.78,1.78,0,0,1-2.77.48A10.26,10.26,0,0,1,38.09,274c-.5-5.33,0-6.26,0-6.26Z"/><path class="cls-8" d="M33.55,202.68a101,101,0,0,0,0,14.16c.56,7.44,2.56,42.21,2.93,50.57,0,0-.19,2.54,4.71,2S45.7,266,45.7,266s6.89-.09,7.1-4.15,7.06-48.47,7.06-64.43Z"/><path class="cls-9" d="M62.4,167.93l3.38,5.22,11.59,14a2.6,2.6,0,0,1-1.84,1.64c-1.13.27-10.88-9-15.09-13.12a3.24,3.24,0,0,1-.45-4.11Z"/><path class="cls-22" d="M55.82,146.48s5.36-.14,7.23,7.61,3.32,17.44,1.7,18.25c-4.87,2.42-8-.42-8-.42Z"/><path class="cls-23" d="M57.43,146.81a4.44,4.44,0,0,0-2.9-.16C50,148,32.8,153,30,155.42c-3.27,2.79,4.91,18.49,4.79,23.64s-.7,11.22-1.16,16.81-1.07,8.67,3.51,11,12.39,2.49,18.24-2,4.79-7.51,4.55-10.75S57.66,177,57.83,173a15.12,15.12,0,0,0,3.59-4.12c1.53-2.61-1.17-7.39-2.29-10.5s.63-6.67.29-9.21A2.9,2.9,0,0,0,57.43,146.81Z"/><path class="cls-10" d="M51.94,152.16c.36,2.83-2.23,5.49-5.8,6s-6.74-1.47-7.1-4.29,2.23-5.49,5.79-5.95S51.58,149.34,51.94,152.16Z"/><path class="cls-9" d="M50.1,152.4c.26,2-1.6,3.92-4.14,4.25s-4.82-1.05-5.08-3.07,1.59-3.92,4.14-4.25S49.84,150.38,50.1,152.4Z"/><path class="cls-9" d="M47.57,145.77s-3.1-2.55-3.71-1.26-1.11,6.83-1.11,6.83L48.9,153,48,147.38S49.2,146.33,47.57,145.77Z"/><circle class="cls-9" cx="48.01" cy="139.15" r="9.19" transform="translate(-93.47 179.81) rotate(-87)"/><path class="cls-11" d="M43.43,146.11c0,.29-.1.6-.15.92.61,3.2,5.4,4.6,5.4,4.6L48,147.38s.58-.49.42-1C46.5,145.8,44.11,145.27,43.43,146.11Z"/><circle class="cls-9" cx="48.01" cy="139.15" r="9.19" transform="translate(-93.47 179.81) rotate(-87)"/><polygon class="cls-9" points="25.38 178.05 26.4 202.63 30 203 32.34 180.87 25.38 178.05"/><path class="cls-22" d="M37.19,176c-.2-.86-1.77-1.56-2-2.68a100.92,100.92,0,0,1-1.53-14.17l-1,11.54c1.16,3.42,2.16,6.56,2.12,8.38-.07,3-.3,6.36-.57,9.74h0S38.38,181.24,37.19,176Z"/><path class="cls-24" d="M30.66,154.92s-2.87,1.09-4.5,9.92-2.84,17.68.06,18.82,5.32,2,6.17-.37,1.38-13.74,1.49-17.83S34.14,155.73,30.66,154.92Z"/><path class="cls-9" d="M76.51,186.14a7.68,7.68,0,0,1,2.68,1.79A18,18,0,0,1,81,190.39c.89,1.34,1.65,4.23,1.1,4.59s-3.67-4.84-4.17-3.63,0,2.33-.64,2.34-2.89-5.22-4.66-6.84S76.51,186.14,76.51,186.14Z"/><path class="cls-25" d="M45.7,266a14.07,14.07,0,0,0,2-.2h0L49,211.76Z"/><path class="cls-23" d="M40.5,236.82l-1.91-2.49L18.47,222.68a2.8,2.8,0,0,1-1.16-2.23V204l-1.15-1.51,1.08-.63h0a.72.72,0,0,1,.78,0l22.8,13.19A2.8,2.8,0,0,1,42,217.32v17.93a1,1,0,0,1-.43,1h0Z"/><path class="cls-26" d="M26.59,227.38l-1.43-.83-7.84-13.62v-9l-1.15-1.51,1.08-.63h0a.72.72,0,0,1,.78,0l22.8,13.19a2.4,2.4,0,0,1,.86,1Z"/><path class="cls-26" d="M16.68,203.14l-.51-.67,1.08-.63h0a.72.72,0,0,1,.78,0l.41.23Z"/><path class="cls-23" d="M41.05,215.23a2.93,2.93,0,0,1,1,1.92l-2.23,1.29-1.07-1.86Z"/><path class="cls-24" d="M39.75,215.71,17,202.52c-.65-.38-1.17,0-1.17.88l0,17.93a2.81,2.81,0,0,0,1.17,2.24l22.79,13.19c.65.38,1.17,0,1.17-.88l0-17.93A2.81,2.81,0,0,0,39.75,215.71Z"/><polygon class="cls-10" points="35.07 228.58 33.98 227.95 33.98 218.62 35.07 219.25 35.07 228.58"/><polygon class="cls-10" points="32.53 227.11 31.45 226.49 31.45 217.16 32.53 217.78 32.53 227.11"/><polygon class="cls-10" points="30 225.65 28.91 225.02 28.91 215.69 30 216.32 30 225.65"/><path class="cls-9" d="M26.43,202.43a54.84,54.84,0,0,0-.8,7.57c.14,1.84,1.12,4.87,1.87,4.81s0-7.39,1.34-6.66,1.44,2,2,1.54-1-6.71-.6-9.42S26.43,202.43,26.43,202.43Z"/><path class="cls-11" d="M51.54,140c4.61,1.63,5.51.63,5.55.58a8,8,0,0,0,.1-.84,9.23,9.23,0,0,0-.31-2.94l-12-1.61A13.1,13.1,0,0,0,51.54,140Z"/><path class="cls-21" d="M57.52,130.54c-1.09-.93-5-5.53-12-4.45-4.39.68-8.09,3.68-8.91,10.51a15.71,15.71,0,0,0,4.25,12.48,4.66,4.66,0,0,0,.5-.25c1.76-1.16,1.94-1.8,1.94-1.8l.39-3.49a1,1,0,0,0-.87-1,1.78,1.78,0,0,1-1.29-.79c-1-1.32-.54-3.37,1.47-3.45a1.55,1.55,0,0,0,1.62-1.15.83.83,0,0,1,1.07-.56c2.3.83,8,2.62,11.59,1.59C61.91,136.9,58.6,131.47,57.52,130.54Z"/><path class="cls-10" d="M52.28,144.11l2.81-.78a6.78,6.78,0,0,1-3.3,2.65c-2,.54-2.26-1.12-2.26-1.12Z"/><polygon class="cls-26" points="31.21 209.51 28.82 208.14 29.72 209.61 30.93 210.06 31.21 209.51"/><path class="cls-12" d="M84.07,213.43l27.45-15.62a1.41,1.41,0,0,0,.81-1.16h0l0-3.07-1.53,1.27L93.65,184.79a5.25,5.25,0,0,0-4.74-.22L62.67,199.5l-2-1.18,0,3.09h0a2,2,0,0,0,1.14,1.53L79.33,213.2A5.28,5.28,0,0,0,84.07,213.43Z"/><path class="cls-2" d="M61.48,197.07l27.45-15.62a5.28,5.28,0,0,1,4.74.23L111.21,192c1.4.82,1.55,2.05.33,2.74L84.09,210.31a5.28,5.28,0,0,1-4.74-.22L61.8,199.81C60.41,199,60.26,197.76,61.48,197.07Z"/><path class="cls-10" d="M84.09,210.31l27.45-15.62a1.3,1.3,0,0,0,.76-1.53,1.66,1.66,0,0,1-.7.72L84.15,209.5a5.28,5.28,0,0,1-4.74-.23L61.86,199a2.18,2.18,0,0,1-1.08-1.21c-.32.66,0,1.45,1,2l17.55,10.28A5.28,5.28,0,0,0,84.09,210.31Z"/><path class="cls-10" d="M90.33,192.93a1.12,1.12,0,0,1,0-2.13,4,4,0,0,1,3.69,0A1.12,1.12,0,0,1,94,193,4.1,4.1,0,0,1,90.33,192.93Z"/><path class="cls-10" d="M84.72,196.12a1.12,1.12,0,0,1,0-2.13,4.1,4.1,0,0,1,3.69,0,1.12,1.12,0,0,1,0,2.13A4.1,4.1,0,0,1,84.72,196.12Z"/><path class="cls-10" d="M79.11,199.31a1.12,1.12,0,0,1,0-2.13,4.1,4.1,0,0,1,3.69,0,1.13,1.13,0,0,1,0,2.14A4.07,4.07,0,0,1,79.11,199.31Z"/><path class="cls-12" d="M238.76,235.33c0,2.54-1.79,3.57-4,2.3a8.83,8.83,0,0,1-4-6.91c0-2.54,1.79-3.58,4-2.3A8.82,8.82,0,0,1,238.76,235.33Z"/><path class="cls-12" d="M240.42,242.52s0-.08,0-.12c-.18-1.07-1.19-2-1.86-1.77a4.62,4.62,0,0,1-3.78-.64,11.88,11.88,0,0,1-3.78-3.73c-.67-1-1.69-1.24-1.86-.37,0,0,0,.07,0,.1l-1.9,12,15.09,8.71Z"/><path class="cls-10" d="M238.76,235.33c0,2.54-1.79,3.57-4,2.3a8.83,8.83,0,0,1-4-6.91c0-2.54,1.79-3.58,4-2.3A8.82,8.82,0,0,1,238.76,235.33Z"/><path class="cls-10" d="M240.42,242.52s0-.08,0-.12c-.18-1.07-1.19-2-1.86-1.77a4.62,4.62,0,0,1-3.78-.64,11.88,11.88,0,0,1-3.78-3.73c-.67-1-1.69-1.24-1.86-.37,0,0,0,.07,0,.1l-1.9,12,15.09,8.71Z"/><polygon class="cls-10" points="243.38 265.87 225.06 255.29 225.06 253.97 243.38 264.55 243.38 265.87"/><polygon class="cls-10" points="237.85 268.44 225.06 261.06 225.06 259.74 237.85 267.12 237.85 268.44"/><polygon class="cls-10" points="236.13 264.56 225.06 258.17 225.06 256.85 236.13 263.24 236.13 264.56"/><polygon class="cls-10" points="243.38 268.75 237.85 265.56 237.85 264.24 243.38 267.43 243.38 268.75"/><polygon class="cls-3" points="243.43 177.63 225.1 167.05 225.1 165.73 243.43 176.31 243.43 177.63"/><polygon class="cls-3" points="237.89 180.2 225.1 172.82 225.1 171.5 237.89 178.88 237.89 180.2"/><polygon class="cls-3" points="236.17 176.32 225.1 169.93 225.1 168.61 236.17 175 236.17 176.32"/><polygon class="cls-3" points="243.43 180.51 237.89 177.32 237.89 176 243.43 179.19 243.43 180.51"/><polygon class="cls-3" points="243.43 188.77 225.1 178.19 225.1 176.87 243.43 187.45 243.43 188.77"/><polygon class="cls-3" points="237.89 191.34 225.1 183.96 225.1 182.64 237.89 190.02 237.89 191.34"/><polygon class="cls-3" points="236.17 187.46 225.1 181.08 225.1 179.76 236.17 186.14 236.17 187.46"/><polygon class="cls-3" points="243.43 191.65 237.89 188.46 237.89 187.14 243.43 190.33 243.43 191.65"/><polygon class="cls-3" points="243.43 199.91 225.1 189.33 225.1 188.01 243.43 198.59 243.43 199.91"/><polygon class="cls-3" points="237.89 202.49 225.1 195.1 225.1 193.78 237.89 201.17 237.89 202.49"/><polygon class="cls-3" points="236.17 198.61 225.1 192.22 225.1 190.9 236.17 197.29 236.17 198.61"/><polygon class="cls-3" points="243.43 202.8 237.89 199.6 237.89 198.28 243.43 201.48 243.43 202.8"/><polygon class="cls-10" points="185.69 231.17 172.62 223.62 172.62 222.4 185.69 229.95 185.69 231.17"/><polygon class="cls-10" points="193.79 235.84 188.21 232.62 188.21 231.4 193.79 234.63 193.79 235.84"/><polygon class="cls-10" points="186.14 234.08 180.56 230.86 180.56 229.64 186.14 232.87 186.14 234.08"/><polygon class="cls-10" points="198.23 241.06 188.21 235.28 188.21 234.06 198.23 239.84 198.23 241.06"/><polygon class="cls-10" points="205.09 247.68 190.27 239.12 190.27 237.9 205.09 246.46 205.09 247.68"/><polygon class="cls-10" points="201.77 240.45 196.19 237.23 196.19 236.01 201.77 239.23 201.77 240.45"/><polygon class="cls-10" points="178.2 229.5 172.62 226.28 172.62 225.06 178.2 228.28 178.2 229.5"/><polygon class="cls-10" points="187.87 237.74 172.59 228.92 172.59 227.7 187.87 236.52 187.87 237.74"/><polygon class="cls-10" points="181.99 237 172.77 231.68 172.77 230.46 181.99 235.78 181.99 237"/><path class="cls-8" d="M317.61,301.33a1,1,0,0,1-.51-1.87l38.73-22.88a.72.72,0,0,0,.35-.61.7.7,0,0,0-.34-.61L345.27,269a1,1,0,1,1,1-1.71l10.57,6.34a2.71,2.71,0,0,1,0,4.65l-38.73,22.89A1.06,1.06,0,0,1,317.61,301.33Z"/><polygon class="cls-1" points="325.18 318.86 311.74 311.1 298.29 318.86 311.74 326.62 325.18 318.86"/><polygon class="cls-12" points="311.74 319.42 311.74 310.68 327.8 301.4 327.8 310.15 311.74 319.42"/><polygon class="cls-12" points="311.74 310.68 295.68 301.4 295.68 310.15 311.74 319.42 311.74 310.68"/><polygon class="cls-2" points="327.8 301.4 311.74 292.13 295.68 301.4 311.74 310.68 327.8 301.4"/></svg>