<svg id="Ñëîé_1" data-name="Ñëîé 1" xmlns="http://www.w3.org/2000/svg" viewBox="0 0 100.27 207.3"><defs><style>.cls-1{fill:#d4ecff;}.cls-2{fill:#173d7a;}.cls-3{fill:#fdd762;}.cls-4{fill:#ffc2b0;}.cls-5{fill:#983be9;}.cls-6{fill:#d8892b;}.cls-7{fill:#721bd5;}.cls-8{fill:#fff;}</style></defs><ellipse class="cls-1" cx="42.03" cy="177.54" rx="26.74" ry="15.44"/><path class="cls-2" d="M25.64,169.36a5.12,5.12,0,0,0-2.88,5.11,8.45,8.45,0,0,0,.42,2.49c.59,1.25,2.54,2.95,5.64,1.73s10-7.7,10.24-11.93C39.54,158.89,30.55,167.27,25.64,169.36Z"/><path class="cls-2" d="M43.86,182.37s-.74,4.54-.38,5.37S46,190.35,49.19,190s12.36-3.54,14.4-9.59c3.17-9.37-17.71.71-17.71.71Z"/><path class="cls-3" d="M52.82,109.85l.71,70.82a5,5,0,0,1-3.85,4.91c-.27,0-.56.08-.87.11a4.41,4.41,0,0,1-4.2-1.74,5.26,5.26,0,0,1-1-2.86l-.9-30.23-4.52-27L32,171.67a4.13,4.13,0,0,1-1.72,3.15,4.77,4.77,0,0,1-2.84.77,5.24,5.24,0,0,1-3.79-1.86,3.82,3.82,0,0,1-.9-2.57l2.47-28.78.92-36.71Z"/><path class="cls-4" d="M43.65,46.47l-1.12,6.45A3,3,0,0,0,45,55.73c2.46.61,3.22-1,3.22-1l1.11-7.26Z"/><path class="cls-4" d="M57.2,42.93c-1.74,5.53-7.14,8.74-12.06,7.17s-7.49-7.33-5.74-12.85,7.14-8.74,12.06-7.17S59,37.4,57.2,42.93Z"/><path class="cls-5" d="M44,53c-.17-.07-10.43-6.68-14.23.24-6.18,11.27-1.66,24.19-3.86,52.25-.37,4.7,6.32,7.56,9.48,9.37a18.92,18.92,0,0,0,9.2,2.61c3.21,0,9.35-2.82,9.13-7-1-19.28.68-35.53,2.25-51.29C55.92,59.21,54,57.09,44,53Z"/><path class="cls-6" d="M38.24,123.83,32,171.67a4.13,4.13,0,0,1-1.72,3.15,3.85,3.85,0,0,1-.53.3c1.3-1,5.08-41.13,5.78-45.59S38.24,123.83,38.24,123.83Z"/><polygon class="cls-4" points="77.21 58.88 85.8 41.83 83.11 40.13 74.2 53.11 77.21 58.88"/><polygon class="cls-4" points="20.56 40.77 24.74 21.77 28.06 21.8 26.81 37.57 20.56 40.77"/><path class="cls-5" d="M55.92,59.21S65.53,63,73.78,52.58a1.59,1.59,0,0,1,2.66.18c.74,1.7,1.67,4.28.54,6.7C72,70.17,55,69.8,50.87,75.8S55.92,59.21,55.92,59.21Z"/><path class="cls-5" d="M37.44,50.67s-7.93.61-9.07-6.26a51.53,51.53,0,0,1-.8-6.86A1.39,1.39,0,0,0,26,36.2c-1.9.24-4.84.81-5.24,2.08-.59,1.9-1.71,11.22,6.12,25.53C32,73.18,37.44,50.67,37.44,50.67Z"/><path class="cls-4" d="M24.72,21.81l.07-2.17a4.47,4.47,0,0,1,.65-2.16l2.2-3.61.57-.72a1.68,1.68,0,0,1,2.2-.38l.5.32a2.07,2.07,0,0,1,1,1.89l-1.14,3.09,1.44-.28a.51.51,0,0,1,.6.41h0a.51.51,0,0,1-.31.56l-2.35.95-2.13,3Z"/><path class="cls-4" d="M85.87,41.94l1-1.93a4.4,4.4,0,0,0,.51-2.2l-.13-4.22-.14-.91a1.66,1.66,0,0,0-1.72-1.41l-.6,0A2.1,2.1,0,0,0,83,32.46l-.53,3.24-1.11-1a.51.51,0,0,0-.73.06h0a.51.51,0,0,0,0,.64l1.57,2,.41,4.13Z"/><path class="cls-7" d="M49.66,73.65c-.84,3.81,4.19,32.53-1.4,43,2.8-1.13,5.56-3.35,5.41-6.18a263.33,263.33,0,0,1,.94-37.64C59.4,70.44,66.87,69,72.16,65.12,66.49,67.21,50.4,70.25,49.66,73.65Z"/><path class="cls-8" d="M40.26,51.21l1.42-1.46s2.35,2.4,4.23,2.81a22.33,22.33,0,0,0,3.37.7l.92,2.53S42.74,55.25,40.26,51.21Z"/><path class="cls-2" d="M50.51,43.1a1.17,1.17,0,0,0,1-.51c.39-.56.15-3.15,1.35-3.58,1.87-.67,6.32,1.68,6.8-5.09.25-3.52-1.47-4.45-1.46-6.38,0,0,.15,1-8.9.37s-12,7.43-12.21,11.26,1.64,10.12,7.82,11c1,.14,5.34-3.32,5.23-3.78s-1.74-.43-1.51-1.75A1.71,1.71,0,0,1,50.51,43.1Z"/></svg>