<svg id="Ñëîé_1" data-name="Ñëîé 1" xmlns="http://www.w3.org/2000/svg" viewBox="0 0 54.3 34.91"><defs><style>.cls-1{fill:#f9bf30;}.cls-2{fill:#fdd762;}.cls-3{fill:#fff;}</style></defs><path class="cls-1" d="M24.83,33.49,52.35,18a1.38,1.38,0,0,0,.81-1.16h0l0-3.06L51.67,15,34.53,4.89a5.29,5.29,0,0,0-4.74-.25L3.49,19.46l-2-1.19,0,3.09h0a2,2,0,0,0,1.13,1.54l17.5,10.35A5.32,5.32,0,0,0,24.83,33.49Z"/><path class="cls-2" d="M2.31,17,29.83,1.53a5.26,5.26,0,0,1,4.73.24L52.07,12.12c1.39.83,1.53,2.06.31,2.74L24.87,30.37a5.25,5.25,0,0,1-4.74-.25L2.62,19.77C1.23,18.94,1.09,17.72,2.31,17Z"/><path class="cls-3" d="M24.87,30.37,52.38,14.86a1.29,1.29,0,0,0,.77-1.52,1.67,1.67,0,0,1-.71.71L24.93,29.55a5.28,5.28,0,0,1-4.74-.24L2.69,19a2.19,2.19,0,0,1-1.08-1.22c-.32.65,0,1.44,1,2L20.13,30.12A5.25,5.25,0,0,0,24.87,30.37Z"/><path class="cls-3" d="M31.18,13a1.12,1.12,0,0,1,0-2.13,4.07,4.07,0,0,1,3.69,0,1.13,1.13,0,0,1,0,2.13A4.07,4.07,0,0,1,31.18,13Z"/><path class="cls-3" d="M25.55,16.18a1.13,1.13,0,0,1,0-2.13,4.07,4.07,0,0,1,3.69,0,1.12,1.12,0,0,1,0,2.13A4.1,4.1,0,0,1,25.55,16.18Z"/><path class="cls-3" d="M19.93,19.35a1.13,1.13,0,0,1,0-2.13,4.1,4.1,0,0,1,3.69,0,1.13,1.13,0,0,1,0,2.14A4.1,4.1,0,0,1,19.93,19.35Z"/></svg>