<svg id="Ñëîé_1" data-name="Ñëîé 1" xmlns="http://www.w3.org/2000/svg" viewBox="0 0 39.2 52.22"><defs><style>.cls-1{fill:#ededed;}.cls-2{fill:#721bd5;}.cls-3{fill:#983be9;}.cls-4{fill:#fff;}</style></defs><path class="cls-1" d="M37,50.66,9.65,34.87a5.29,5.29,0,0,1-2.2-4.21V10.33c0-1.62,1-2.37,2.2-1.67L37,24.45a5.28,5.28,0,0,1,2.2,4.21V49C39.2,50.61,38.22,51.36,37,50.66Z"/><path class="cls-2" d="M34.29,18.4,7,2.61a1.4,1.4,0,0,0-1.42-.12h0L2.88,4l1.86.68V24.61A5.25,5.25,0,0,0,7,28.81L33.09,43.9v2.34l2.68-1.54h0a2,2,0,0,0,.74-1.75V22.6A5.25,5.25,0,0,0,34.29,18.4Z"/><path class="cls-3" d="M31.59,46.16,4.24,30.37A5.29,5.29,0,0,1,2,26.16V5.83c0-1.62,1-2.37,2.2-1.67L31.59,20a5.28,5.28,0,0,1,2.2,4.21V44.49C33.79,46.11,32.81,46.86,31.59,46.16Z"/><path class="cls-4" d="M31.59,20,4.24,4.16a1.29,1.29,0,0,0-1.7.12,1.62,1.62,0,0,1,1,.24l27.35,15.8a5.25,5.25,0,0,1,2.2,4.2V44.85a2.19,2.19,0,0,1-.5,1.55c.73-.06,1.23-.75,1.23-1.91V24.16A5.28,5.28,0,0,0,31.59,20Z"/><path class="cls-4" d="M13.44,23.36c0,1.18-.83,1.65-1.84,1.07a4.09,4.09,0,0,1-1.85-3.2c0-1.18.83-1.65,1.85-1.07A4.1,4.1,0,0,1,13.44,23.36Z"/><path class="cls-4" d="M19,26.59c0,1.17-.83,1.65-1.84,1.06a4.08,4.08,0,0,1-1.85-3.19c0-1.18.83-1.66,1.85-1.07A4.1,4.1,0,0,1,19,26.59Z"/><path class="cls-4" d="M24.62,29.81c0,1.18-.82,1.66-1.84,1.07a4.09,4.09,0,0,1-1.85-3.2c0-1.17.83-1.65,1.85-1.06A4.07,4.07,0,0,1,24.62,29.81Z"/></svg>