<svg id="Ñëîé_1" data-name="Ñëîé 1" xmlns="http://www.w3.org/2000/svg" viewBox="0 0 117.89 83.55"><defs><style>.cls-1{fill:#ededed;}.cls-2{fill:#e8a200;}.cls-3{fill:#f9bf30;}.cls-4{fill:#fdd762;}.cls-5{fill:#fff;}</style></defs><polygon class="cls-1" points="84.96 46.31 87.67 55.19 94.6 59.96 89.34 62.1 90.92 70.91 84.96 63.24 79.01 64.03 80.58 57.04 75.33 48.83 82.26 52.06 84.96 46.31"/><polygon class="cls-1" points="72.52 47.31 65.59 42.55 62.88 33.67 62.47 34.54 62.47 50.66 62.88 50.6 68.83 58.27 67.26 49.46 72.52 47.31"/><polygon class="cls-1" points="107.05 58.95 109.75 67.83 116.68 72.6 111.43 74.74 113 83.55 107.05 75.89 101.09 76.68 102.67 69.68 97.41 61.47 104.34 64.7 107.05 58.95"/><polygon class="cls-2" points="14.06 2.55 16.77 11.43 23.7 16.2 18.44 18.34 20.02 27.15 14.06 19.49 8.11 20.28 9.68 13.28 4.43 5.07 11.36 8.3 14.06 2.55"/><path class="cls-3" d="M1.19,6.93,4.43,5.07l5,2.33s0,3.36,0,3.44a17.48,17.48,0,0,1-2.2.18C7.08,11,1.19,6.93,1.19,6.93Z"/><path class="cls-2" d="M20,27.15,16.78,29,15.21,20.2s1.57-1.66,1.56-1.66l1.76.3Z"/><polygon class="cls-4" points="10.83 4.41 13.54 13.29 20.46 18.05 15.21 20.2 16.79 29.01 10.83 21.34 4.88 22.13 6.45 15.14 1.19 6.93 8.12 10.16 10.83 4.41"/><path class="cls-5" d="M16.78,29,15.21,20.2l5.26-2.15-6.93-4.76L10.83,4.41,8.12,10.16,1.19,6.93l.49.75L8.35,10.8l2.38-5.06,2.4,7.85L19.46,18,14.67,19.9l1.48,8.3Z"/><polygon class="cls-2" points="10.83 4.41 14.06 2.55 16.77 11.43 13.54 13.29 10.83 4.41"/><polygon class="cls-3" points="23.7 16.2 20.46 18.05 13.54 13.29 16.77 11.43 23.7 16.2"/><polygon class="cls-5" points="13.7 13.51 13.21 13.22 16.7 11.19 16.77 11.43 17 11.59 13.7 13.51"/><polygon class="cls-2" points="36.15 15.19 38.85 24.07 45.78 28.84 40.53 30.98 42.1 39.79 36.15 32.13 30.19 32.92 31.77 25.93 26.51 17.71 33.44 20.95 36.15 15.19"/><path class="cls-3" d="M23.28,19.57l3.23-1.86,5,2.33s0,3.36,0,3.44a17.64,17.64,0,0,1-2.2.18C29.17,23.66,23.28,19.57,23.28,19.57Z"/><path class="cls-2" d="M42.1,39.79l-3.23,1.86-1.58-8.81s1.57-1.66,1.56-1.66l1.77.3Z"/><polygon class="cls-4" points="32.91 17.05 35.62 25.93 42.55 30.7 37.29 32.84 38.87 41.65 32.91 33.98 26.96 34.77 28.53 27.78 23.28 19.57 30.21 22.8 32.91 17.05"/><path class="cls-5" d="M38.87,41.65l-1.58-8.81,5.26-2.14-6.93-4.77-2.71-8.88-2.7,5.75-6.93-3.23.48.75,6.68,3.12,2.38-5.06,2.39,7.85,6.34,4.36-4.8,1.95,1.49,8.3Z"/><polygon class="cls-2" points="32.91 17.05 36.15 15.19 38.85 24.07 35.62 25.93 32.91 17.05"/><polygon class="cls-3" points="45.78 28.84 42.55 30.7 35.62 25.93 38.85 24.07 45.78 28.84"/><polygon class="cls-5" points="35.78 26.15 35.29 25.87 38.78 23.83 38.85 24.07 39.08 24.23 35.78 26.15"/><polygon class="cls-2" points="58.23 27.83 60.94 36.71 67.87 41.48 62.61 43.62 64.19 52.44 58.23 44.77 52.28 45.56 53.85 38.57 48.6 30.36 55.52 33.59 58.23 27.83"/><path class="cls-3" d="M45.36,32.21l3.24-1.86,5,2.33s0,3.36,0,3.44a17.48,17.48,0,0,1-2.2.18C51.25,36.3,45.36,32.21,45.36,32.21Z"/><path class="cls-2" d="M64.19,52.44,61,54.29l-1.57-8.81,1.56-1.65,1.76.29Z"/><polygon class="cls-4" points="55 29.69 57.7 38.57 64.63 43.34 59.38 45.48 60.95 54.29 55 46.63 49.04 47.41 50.62 40.42 45.36 32.21 52.29 35.44 55 29.69"/><path class="cls-5" d="M61,54.29l-1.57-8.81,5.25-2.14L57.7,38.57,55,29.69l-2.71,5.75-6.93-3.23.49.76,6.67,3.11L54.9,31l2.39,7.85,6.34,4.36-4.79,2,1.48,8.3Z"/><polygon class="cls-2" points="55 29.69 58.23 27.83 60.94 36.71 57.7 38.57 55 29.69"/><polygon class="cls-3" points="67.87 41.48 64.63 43.34 57.7 38.57 60.94 36.71 67.87 41.48"/><polygon class="cls-5" points="57.87 38.79 57.37 38.51 60.87 36.48 60.94 36.71 61.17 36.87 57.87 38.79"/><polygon class="cls-2" points="80.31 40.48 83.02 49.35 89.95 54.12 84.69 56.27 86.27 65.08 80.31 57.41 74.36 58.2 75.94 51.21 70.68 43 77.61 46.23 80.31 40.48"/><path class="cls-3" d="M67.45,44.85,70.68,43l5,2.33s0,3.35,0,3.43a17.31,17.31,0,0,1-2.19.18C73.34,48.94,67.45,44.85,67.45,44.85Z"/><path class="cls-2" d="M86.27,65.08,83,66.93l-1.58-8.81S83,56.47,83,56.47l1.76.3Z"/><polygon class="cls-4" points="77.08 42.33 79.79 51.21 86.72 55.98 81.46 58.12 83.04 66.93 77.08 59.27 71.13 60.06 72.7 53.06 67.45 44.85 74.38 48.08 77.08 42.33"/><path class="cls-5" d="M83,66.93l-1.58-8.81L86.72,56l-6.93-4.77-2.71-8.88-2.7,5.75-6.93-3.23.48.76,6.68,3.11L77,43.66l2.39,7.85,6.34,4.36-4.8,2,1.49,8.3Z"/><polygon class="cls-2" points="77.08 42.33 80.31 40.48 83.02 49.35 79.79 51.21 77.08 42.33"/><polygon class="cls-3" points="89.95 54.12 86.72 55.98 79.79 51.21 83.02 49.35 89.95 54.12"/><polygon class="cls-5" points="79.95 51.43 79.46 51.15 82.95 49.12 83.02 49.35 83.25 49.51 79.95 51.43"/><polygon class="cls-2" points="102.4 53.12 105.11 61.99 112.03 66.76 106.78 68.91 108.35 77.72 102.4 70.05 96.44 70.84 98.02 63.85 92.76 55.64 99.69 58.87 102.4 53.12"/><path class="cls-3" d="M89.53,57.49l3.23-1.85,5,2.33s0,3.35,0,3.43a17.64,17.64,0,0,1-2.2.18C95.42,61.58,89.53,57.49,89.53,57.49Z"/><path class="cls-2" d="M108.35,77.72l-3.23,1.85-1.57-8.81,1.56-1.65,1.76.3Z"/><polygon class="cls-4" points="99.17 54.97 101.87 63.85 108.8 68.62 103.55 70.76 105.12 79.57 99.17 71.91 93.21 72.7 94.79 65.7 89.53 57.49 96.46 60.73 99.17 54.97"/><path class="cls-5" d="M105.12,79.57l-1.57-8.81,5.25-2.14-6.93-4.77L99.17,55l-2.71,5.76-6.93-3.24.48.76,6.68,3.11,2.38-5.06,2.39,7.85,6.34,4.36L103,70.46l1.48,8.3Z"/><polygon class="cls-2" points="99.17 54.97 102.4 53.12 105.11 61.99 101.87 63.85 99.17 54.97"/><polygon class="cls-3" points="112.03 66.76 108.8 68.62 101.87 63.85 105.11 61.99 112.03 66.76"/><polygon class="cls-5" points="102.03 64.07 101.54 63.79 105.03 61.76 105.11 61.99 105.34 62.15 102.03 64.07"/></svg>