<?xml version="1.0" encoding="utf-8"?>
<!-- Generator: Adobe Illustrator 25.0.0, SVG Export Plug-In . SVG Version: 6.00 Build 0)  -->
<svg version="1.1" id="Layer_1" xmlns="http://www.w3.org/2000/svg" xmlns:xlink="http://www.w3.org/1999/xlink" x="0px" y="0px"
	 viewBox="0 0 378.1 394.3" style="enable-background:new 0 0 378.1 394.3;" xml:space="preserve">
<style type="text/css">
	.st0{fill-rule:evenodd;clip-rule:evenodd;fill:#FFFFFF;}
</style>
<g id="surface1">
	<path class="st0" d="M242.4,1.5c8.8-0.7,17.7-1.5,26.5-0.1c7.6,1.2,14.4,5.1,20.6,9.5c25.2,17.8,50.6,35.5,75.8,53.4
		c5.5,4,12.4,8.7,12,16.4c0.1,86.3,0,172.7,0,259c-0.2,8.4,0.9,17.1-2.5,25c-2,5-6.3,8.7-11.3,10.7c-6.2,2.6-13.1,2.9-19.7,3.2
		c-81.7,4.9-163.4,9.9-245.1,14.8c-8.2,0.4-17,0.8-24.4-3.2c-5.3-2.9-9-7.8-12.6-12.5c-16.2-21.1-32.5-42.2-48.7-63.2
		c-6.8-8.9-12.7-19.3-12.7-30.8c0-79,0-158,0-237c-0.2-6.6,0.6-13.4,4.4-19c4.1-6.4,11.8-9.4,19.1-10C96.6,12.2,169.5,6.9,242.4,1.5
		z M41.6,38.2c-2.7,0.3-6.1,0.9-7.5,3.6c-0.8,1.8,0.6,3.5,1.9,4.6c10,8,20.1,15.9,30.2,23.9c3.4,2.7,7.1,5.3,11.3,6.5
		c4.9,1.5,10.1,1.3,15.2,1.1c76.3-4.7,152.6-9.2,229-13.8c0.5-0.2,1.6-0.5,2.2-0.7c-0.4-1.7-1.1-3.3-2.6-4.2
		c-13-9.4-26-18.7-38.9-28.2c-8.1-6.2-18.5-9-28.6-8.3C183,27.9,112.3,33.1,41.6,38.2z M329.7,90.7c-79.3,4.6-158.6,9.3-237.9,13.9
		c-3.7,0.2-7.8,0.8-10.4,3.7c-2.8,3.1-3.1,7.4-3.2,11.4c0,76,0,152,0,228c0,4.6,0.9,9.7,4.6,12.8c4.4,3.5,10.5,3.5,15.9,3.2
		c79.3-4.6,158.6-9.2,237.9-13.8c4-0.3,8.2-1.3,11-4.4c3.3-3.8,3.6-9.1,3.7-13.9c0-75.7,0-151.4,0-227.1c0-5-1-11-5.9-13.5
		C340.4,89,334.9,90.8,329.7,90.7z M259.9,135.3c17.7-1.1,35.4-2,53.1-3.2c1.2,4.9,0.8,11.9-4.6,14c-4.5,1.2-9.2,1.8-13.7,2.8
		c0,56-0.1,112,0.1,168c-10.3,5.7-22.3,10.4-34.3,7.8c-7.8-1.8-12.4-8.9-17.1-14.7c-25-39.2-50-78.4-74.9-117.6c0.1,38,0,76,0,113.9
		c7.9,1.7,15.8,3.6,23.7,5.3c-0.4,7.9-7.9,13.1-15.3,13.5c-19,1-37.9,2.2-56.9,3.2c-1-4.4,0.4-9.8,4.7-11.9
		c4.8-1.6,9.8-2.7,14.6-4.2c0-50.2,0-100.3,0-150.5c-6.4-0.5-12.9-0.9-19.3-1.6c-1.3-7.6,3.5-16.3,11.6-17.3
		c19.4-1.6,38.8-2.6,58.2-4.1c26,39.7,52,79.5,78,119.2c-0.1-35.1,0-70.3,0-105.4c-6.7-0.8-13.3-1.5-20-2.3
		C246.4,143,252.5,135.8,259.9,135.3z"/>
</g>
</svg>
