<svg id="Layer_1" data-name="Layer 1" xmlns="http://www.w3.org/2000/svg" viewBox="0 0 482 260.88"><defs><style>.cls-1{fill:#fff;stroke:#fff;stroke-miterlimit:10;stroke-width:3px;}</style></defs><path class="cls-1" d="M129.13,366.33H79.93q-7.29,0-10.64-3.34T66,352.36V206.26H24.34q-7.29,0-10.63-3.34t-3.34-10.63V155.53a18.46,18.46,0,0,1,1.06-6.68,11.32,11.32,0,0,1,3.19-4.56l39.18-33.1a12,12,0,0,1,4.1-2,20.09,20.09,0,0,1,5.62-.76H223.9q7.29,0,10.63,3.34t3.34,10.63v36.76a18.46,18.46,0,0,1-1.06,6.68,11.42,11.42,0,0,1-3.19,4.56l-39.49,32.8a10.21,10.21,0,0,1-3.79,2.13,17,17,0,0,1-5.62.91h-2.43v113a18.45,18.45,0,0,1-1.07,6.68,11.33,11.33,0,0,1-3.18,4.56l-39.49,32.8a10.19,10.19,0,0,1-3.8,2.13A16.73,16.73,0,0,1,129.13,366.33Zm39.18-36.14c3.85,0,6.63-.86,8.36-2.59s2.58-4.5,2.58-8.35V170.11H223.9c3.84,0,6.63-.86,8.35-2.58s2.58-4.5,2.58-8.35V122.42c0-3.84-.86-6.63-2.58-8.35s-4.51-2.58-8.35-2.58H63.52q-5.77,0-8.35,2.58c-1.72,1.72-2.58,4.51-2.58,8.35v36.76q0,5.77,2.58,8.35t8.35,2.58h44.65V319.25c0,3.85.86,6.64,2.59,8.35s4.5,2.59,8.35,2.59Zm-26.12-27.34v-161H79.93v-3H207.5v3H145.23v161Z" transform="translate(-8.87 -106.95)"/><path class="cls-1" d="M362.1,330.49l-39.48,32.8a10.27,10.27,0,0,1-3.8,2.13,16.73,16.73,0,0,1-5.62.91H266.42q-7.29,0-10.63-3.34t-3.34-10.63V155.53a18.46,18.46,0,0,1,1.06-6.68,11.32,11.32,0,0,1,3.19-4.56l39.19-33.1a11.87,11.87,0,0,1,4.1-2,20,20,0,0,1,5.62-.76H406.75q36.15,0,49.51,15t13.37,38.73v14a62.9,62.9,0,0,1-2.74,19.59,29.24,29.24,0,0,1-8.81,13.52h-.3a41.16,41.16,0,0,1,22.93,15.79q8.66,11.85,8.66,29.77v64.39a18.68,18.68,0,0,1-1.06,6.68,11.35,11.35,0,0,1-3.19,4.56l-39.49,32.8a10.19,10.19,0,0,1-3.8,2.13,16.67,16.67,0,0,1-5.61.91H389.13q-7.29,0-10.63-3.34t-3.34-10.63V305.89c0-3.24-.6-5.72-1.82-7.45s-3.45-2.58-6.68-2.58h-.31v23.39a18.46,18.46,0,0,1-1.06,6.68A11.26,11.26,0,0,1,362.1,330.49Zm-9.72-.3c3.85,0,6.63-.86,8.36-2.59s2.58-4.5,2.58-8.35V259.72h42.52q6.38,0,9,3.19c1.72,2.12,2.58,5.42,2.58,9.87v46.47c0,3.85.86,6.64,2.59,8.35s4.5,2.59,8.35,2.59H475.4c3.84,0,6.63-.86,8.35-2.59s2.58-4.5,2.58-8.35V254.86q0-19.14-10.17-30.68t-26.58-13.37a23.65,23.65,0,0,0,13.21-12.9q3.79-9,3.8-21.72v-14q0-22.49-12.91-36.61t-46.93-14.12H305.61q-5.78,0-8.36,2.58c-1.72,1.72-2.58,4.51-2.58,8.35V319.25c0,3.85.86,6.64,2.58,8.35s4.51,2.59,8.36,2.59Zm-21.87-27.34h-3v-164h69.26q17.61,0,26.12,9.87t8.51,24.75v21q0,14-3.65,22.93t-14.58,12.31h3.34q18.52,0,27.64,8.35t9.11,24.15v40.7h-3v-40.7q0-14.88-8.2-22.33t-25.52-7.44h-86Zm66.22-161H330.51v87.79h66.22q18.82,0,25.21-9.12t6.38-25.81V173.45q0-14-7.75-22.78T396.73,141.86Zm-33.41,24.3H386.1q7.89,0,10.63,4.1a18,18,0,0,1,2.73,10.18v10.33a17.94,17.94,0,0,1-2.73,10.17Q394,205.05,386.1,205H363.32Z" transform="translate(-8.87 -106.95)"/></svg>