<?xml version="1.0" encoding="utf-8"?>
<!-- Generator: Adobe Illustrator 25.0.0, SVG Export Plug-In . SVG Version: 6.00 Build 0)  -->
<svg version="1.1" id="Layer_1" xmlns="http://www.w3.org/2000/svg" xmlns:xlink="http://www.w3.org/1999/xlink" x="0px" y="0px"
	 viewBox="0 0 539 814" style="enable-background:new 0 0 539 814;" xml:space="preserve">
<style type="text/css">
	.st0{opacity:0.68;fill:#FFBCA2;}
	.st1{fill:none;stroke:#000000;stroke-width:27;stroke-miterlimit:10;}
</style>
<g>
	<polygon class="st0" points="89.4,274 89.6,764.3 242.7,697.3 242.6,481.5 367.4,426.9 367.5,642.7 514.4,578.4 514.1,70.1 
		364.1,135.7 364.2,336 229.8,394.8 229.7,194.5 89.4,255.9 	"/>
	<polygon class="st1" points="54.7,269.1 55,759.4 208,692.4 207.9,476.6 332.7,422 332.8,637.8 479.7,573.5 479.5,65.1 
		329.5,130.8 329.6,331.1 195.2,389.9 195.1,189.6 54.7,251 	"/>
	<rect x="489" width="50" height="50"/>
	<rect y="764" width="50" height="50"/>
</g>
</svg>
