<svg width="1068" height="115" viewBox="0 0 1068 115" fill="none" xmlns="http://www.w3.org/2000/svg">
<path fill-rule="evenodd" clip-rule="evenodd" d="M266.5 62.5H52.5V59.5H266.5V62.5Z" fill="#983CE9"/>
<path fill-rule="evenodd" clip-rule="evenodd" d="M507 63.5H292V60.5H507V63.5ZM739.5 63.5H524.5V60.5H739.5V63.5Z" fill="#FF2D9B"/>
<path fill-rule="evenodd" clip-rule="evenodd" d="M976.5 61.5H760.5V58.5H976.5V61.5Z" fill="#983CE9"/>
<path d="M24 47H55V78H24V47Z" fill="#983CE9"/>
<path d="M261 47H292V78H261V47Z" fill="#FF2D9B"/>
<path d="M498 47H529V78H498V47Z" fill="#983CE9"/>
<path d="M735 47H766V78H735V47Z" fill="#FF2D9B"/>
<path d="M972 47H1003V78H972V47Z" fill="#983CE9"/>
<path d="M5.18999 14.94C5.70999 14.94 6.16666 14.8733 6.55999 14.74C6.95999 14.6067 7.28999 14.42 7.54999 14.18C7.81666 13.9333 8.01666 13.6367 8.14999 13.29C8.28333 12.9433 8.34999 12.5567 8.34999 12.13C8.34999 11.71 8.28333 11.3333 8.14999 11C8.02333 10.6667 7.82999 10.3833 7.56999 10.15C7.30999 9.91668 6.97999 9.74001 6.57999 9.62001C6.18666 9.49335 5.72333 9.43001 5.18999 9.43001H3.04999V14.94H5.18999ZM5.18999 7.60001C6.12999 7.60001 6.94332 7.71001 7.62999 7.93001C8.32333 8.15001 8.89333 8.46001 9.33999 8.86001C9.79332 9.25334 10.13 9.73001 10.35 10.29C10.57 10.8433 10.68 11.4567 10.68 12.13C10.68 12.8167 10.5633 13.4467 10.33 14.02C10.0967 14.5867 9.74999 15.0767 9.28999 15.49C8.82999 15.8967 8.25666 16.2167 7.56999 16.45C6.88999 16.6767 6.09666 16.79 5.18999 16.79H3.04999V22H0.709991V7.60001H5.18999Z" fill="black"/>
<path d="M17.6545 17.54C16.8879 17.5667 16.2412 17.63 15.7145 17.73C15.1879 17.8233 14.7612 17.9467 14.4345 18.1C14.1079 18.2467 13.8712 18.4233 13.7245 18.63C13.5845 18.8367 13.5145 19.0633 13.5145 19.31C13.5145 19.55 13.5512 19.7567 13.6245 19.93C13.7045 20.0967 13.8112 20.2367 13.9445 20.35C14.0845 20.4567 14.2445 20.5367 14.4245 20.59C14.6112 20.6367 14.8145 20.66 15.0345 20.66C15.5945 20.66 16.0745 20.5567 16.4745 20.35C16.8812 20.1367 17.2745 19.83 17.6545 19.43V17.54ZM11.9545 13.22C13.1079 12.1467 14.4812 11.61 16.0745 11.61C16.6612 11.61 17.1812 11.7067 17.6345 11.9C18.0945 12.0867 18.4779 12.3533 18.7845 12.7C19.0979 13.0467 19.3345 13.46 19.4945 13.94C19.6612 14.4133 19.7445 14.94 19.7445 15.52V22H18.7845C18.5779 22 18.4212 21.97 18.3145 21.91C18.2079 21.8433 18.1179 21.7133 18.0445 21.52L17.8345 20.69C17.5745 20.9233 17.3179 21.1333 17.0645 21.32C16.8112 21.5 16.5479 21.6533 16.2745 21.78C16.0079 21.9067 15.7179 22 15.4045 22.06C15.0979 22.1267 14.7579 22.16 14.3845 22.16C13.9712 22.16 13.5845 22.1033 13.2245 21.99C12.8712 21.8767 12.5645 21.7067 12.3045 21.48C12.0445 21.2467 11.8379 20.96 11.6845 20.62C11.5379 20.28 11.4645 19.88 11.4645 19.42C11.4645 19.0267 11.5679 18.6433 11.7745 18.27C11.9879 17.8967 12.3345 17.5633 12.8145 17.27C13.3012 16.97 13.9379 16.7233 14.7245 16.53C15.5179 16.3367 16.4945 16.2267 17.6545 16.2V15.52C17.6545 14.7867 17.4979 14.24 17.1845 13.88C16.8712 13.52 16.4112 13.34 15.8045 13.34C15.3912 13.34 15.0445 13.3933 14.7645 13.5C14.4845 13.6 14.2412 13.71 14.0345 13.83C13.8279 13.95 13.6445 14.0633 13.4845 14.17C13.3245 14.27 13.1545 14.32 12.9745 14.32C12.8279 14.32 12.7012 14.2833 12.5945 14.21C12.4945 14.13 12.4112 14.0333 12.3445 13.92L11.9545 13.22Z" fill="black"/>
<path d="M24.5031 11.8V22H22.3531V11.8H24.5031ZM24.8631 8.72001C24.8631 8.91335 24.8231 9.09668 24.7431 9.27001C24.6698 9.44335 24.5665 9.59668 24.4331 9.73001C24.2998 9.85668 24.1431 9.96001 23.9631 10.04C23.7898 10.1133 23.6031 10.15 23.4031 10.15C23.2098 10.15 23.0264 10.1133 22.8531 10.04C22.6864 9.96001 22.5398 9.85668 22.4131 9.73001C22.2864 9.59668 22.1831 9.44335 22.1031 9.27001C22.0298 9.09668 21.9931 8.91335 21.9931 8.72001C21.9931 8.52001 22.0298 8.33335 22.1031 8.16001C22.1831 7.98668 22.2864 7.83668 22.4131 7.71001C22.5398 7.57668 22.6864 7.47334 22.8531 7.40001C23.0264 7.32001 23.2098 7.28001 23.4031 7.28001C23.6031 7.28001 23.7898 7.32001 23.9631 7.40001C24.1431 7.47334 24.2998 7.57668 24.4331 7.71001C24.5665 7.83668 24.6698 7.98668 24.7431 8.16001C24.8231 8.33335 24.8631 8.52001 24.8631 8.72001Z" fill="black"/>
<path d="M29.2145 13.15C29.4345 12.9233 29.6612 12.72 29.8945 12.54C30.1345 12.3533 30.3879 12.1933 30.6545 12.06C30.9212 11.9267 31.2045 11.8233 31.5045 11.75C31.8045 11.6767 32.1312 11.64 32.4845 11.64C33.0445 11.64 33.5345 11.7333 33.9545 11.92C34.3812 12.1067 34.7379 12.37 35.0245 12.71C35.3179 13.05 35.5379 13.46 35.6845 13.94C35.8312 14.4133 35.9045 14.9367 35.9045 15.51V22H33.7645V15.51C33.7645 14.8233 33.6045 14.29 33.2845 13.91C32.9712 13.53 32.4912 13.34 31.8445 13.34C31.3645 13.34 30.9179 13.45 30.5045 13.67C30.0979 13.89 29.7145 14.19 29.3545 14.57V22H27.2045V11.8H28.5045C28.7979 11.8 28.9845 11.9367 29.0645 12.21L29.2145 13.15Z" fill="black"/>
<path d="M48.2759 14.94C48.7959 14.94 49.2526 14.8733 49.6459 14.74C50.0459 14.6067 50.3759 14.42 50.6359 14.18C50.9026 13.9333 51.1026 13.6367 51.2359 13.29C51.3693 12.9433 51.4359 12.5567 51.4359 12.13C51.4359 11.71 51.3693 11.3333 51.2359 11C51.1093 10.6667 50.9159 10.3833 50.6559 10.15C50.3959 9.91668 50.0659 9.74001 49.6659 9.62001C49.2726 9.49335 48.8093 9.43001 48.2759 9.43001H46.1359V14.94H48.2759ZM48.2759 7.60001C49.2159 7.60001 50.0293 7.71001 50.7159 7.93001C51.4093 8.15001 51.9793 8.46001 52.4259 8.86001C52.8793 9.25334 53.2159 9.73001 53.4359 10.29C53.6559 10.8433 53.7659 11.4567 53.7659 12.13C53.7659 12.8167 53.6493 13.4467 53.4159 14.02C53.1826 14.5867 52.8359 15.0767 52.3759 15.49C51.9159 15.8967 51.3426 16.2167 50.6559 16.45C49.9759 16.6767 49.1826 16.79 48.2759 16.79H46.1359V22H43.7959V7.60001H48.2759Z" fill="black"/>
<path d="M59.5051 11.64C60.2585 11.64 60.9385 11.7633 61.5452 12.01C62.1585 12.2567 62.6785 12.6067 63.1051 13.06C63.5385 13.5133 63.8718 14.0633 64.1051 14.71C64.3385 15.3567 64.4551 16.0833 64.4551 16.89C64.4551 17.6967 64.3385 18.4233 64.1051 19.07C63.8718 19.7167 63.5385 20.27 63.1051 20.73C62.6785 21.1833 62.1585 21.5333 61.5452 21.78C60.9385 22.0267 60.2585 22.15 59.5051 22.15C58.7451 22.15 58.0585 22.0267 57.4451 21.78C56.8385 21.5333 56.3185 21.1833 55.8851 20.73C55.4518 20.27 55.1185 19.7167 54.8851 19.07C54.6518 18.4233 54.5351 17.6967 54.5351 16.89C54.5351 16.0833 54.6518 15.3567 54.8851 14.71C55.1185 14.0633 55.4518 13.5133 55.8851 13.06C56.3185 12.6067 56.8385 12.2567 57.4451 12.01C58.0585 11.7633 58.7451 11.64 59.5051 11.64ZM59.5051 20.47C60.4251 20.47 61.1085 20.1633 61.5551 19.55C62.0085 18.93 62.2351 18.0467 62.2351 16.9C62.2351 15.7533 62.0085 14.87 61.5551 14.25C61.1085 13.6233 60.4251 13.31 59.5051 13.31C58.5718 13.31 57.8785 13.6233 57.4251 14.25C56.9718 14.87 56.7451 15.7533 56.7451 16.9C56.7451 18.0467 56.9718 18.93 57.4251 19.55C57.8785 20.1633 58.5718 20.47 59.5051 20.47Z" fill="black"/>
<path d="M68.7609 11.8V22H66.6109V11.8H68.7609ZM69.1209 8.72001C69.1209 8.91335 69.0809 9.09668 69.0009 9.27001C68.9276 9.44335 68.8243 9.59668 68.6909 9.73001C68.5576 9.85668 68.4009 9.96001 68.2209 10.04C68.0476 10.1133 67.8609 10.15 67.6609 10.15C67.4676 10.15 67.2843 10.1133 67.1109 10.04C66.9443 9.96001 66.7976 9.85668 66.6709 9.73001C66.5443 9.59668 66.4409 9.44335 66.3609 9.27001C66.2876 9.09668 66.2509 8.91335 66.2509 8.72001C66.2509 8.52001 66.2876 8.33335 66.3609 8.16001C66.4409 7.98668 66.5443 7.83668 66.6709 7.71001C66.7976 7.57668 66.9443 7.47334 67.1109 7.40001C67.2843 7.32001 67.4676 7.28001 67.6609 7.28001C67.8609 7.28001 68.0476 7.32001 68.2209 7.40001C68.4009 7.47334 68.5576 7.57668 68.6909 7.71001C68.8243 7.83668 68.9276 7.98668 69.0009 8.16001C69.0809 8.33335 69.1209 8.52001 69.1209 8.72001Z" fill="black"/>
<path d="M73.4723 13.15C73.6923 12.9233 73.919 12.72 74.1523 12.54C74.3923 12.3533 74.6457 12.1933 74.9123 12.06C75.179 11.9267 75.4623 11.8233 75.7623 11.75C76.0623 11.6767 76.389 11.64 76.7423 11.64C77.3023 11.64 77.7923 11.7333 78.2123 11.92C78.639 12.1067 78.9957 12.37 79.2823 12.71C79.5757 13.05 79.7957 13.46 79.9423 13.94C80.089 14.4133 80.1623 14.9367 80.1623 15.51V22H78.0223V15.51C78.0223 14.8233 77.8623 14.29 77.5423 13.91C77.229 13.53 76.749 13.34 76.1023 13.34C75.6223 13.34 75.1757 13.45 74.7623 13.67C74.3557 13.89 73.9723 14.19 73.6123 14.57V22H71.4623V11.8H72.7623C73.0557 11.8 73.2423 11.9367 73.3223 12.21L73.4723 13.15Z" fill="black"/>
<path d="M85.8066 22.16C84.9599 22.16 84.3066 21.9233 83.8466 21.45C83.3932 20.97 83.1666 20.2967 83.1666 19.43V13.49H82.0466C81.9266 13.49 81.8232 13.4533 81.7366 13.38C81.6499 13.3 81.6066 13.1833 81.6066 13.03V12.16L83.2566 11.92L83.7266 8.97001C83.7599 8.85668 83.8166 8.76668 83.8966 8.70001C83.9766 8.62668 84.0832 8.59001 84.2166 8.59001H85.3166V11.94H88.1466V13.49H85.3166V19.28C85.3166 19.6467 85.4066 19.9267 85.5866 20.12C85.7666 20.3133 86.0066 20.41 86.3066 20.41C86.4732 20.41 86.6166 20.39 86.7366 20.35C86.8566 20.3033 86.9599 20.2567 87.0466 20.21C87.1332 20.1567 87.2066 20.11 87.2666 20.07C87.3332 20.0233 87.3966 20 87.4566 20C87.5766 20 87.6732 20.0667 87.7466 20.2L88.3866 21.25C88.0532 21.5433 87.6599 21.77 87.2066 21.93C86.7532 22.0833 86.2866 22.16 85.8066 22.16Z" fill="black"/>
<path d="M95.9312 13.65C95.8779 13.7433 95.8179 13.81 95.7512 13.85C95.6846 13.89 95.6012 13.91 95.5012 13.91C95.3879 13.91 95.2646 13.8767 95.1312 13.81C94.9979 13.7367 94.8412 13.6567 94.6612 13.57C94.4812 13.4833 94.2679 13.4067 94.0212 13.34C93.7812 13.2667 93.4979 13.23 93.1712 13.23C92.9046 13.23 92.6612 13.2633 92.4412 13.33C92.2279 13.39 92.0446 13.48 91.8912 13.6C91.7446 13.7133 91.6312 13.85 91.5512 14.01C91.4712 14.1633 91.4312 14.33 91.4312 14.51C91.4312 14.75 91.5046 14.95 91.6512 15.11C91.7979 15.27 91.9912 15.41 92.2312 15.53C92.4712 15.6433 92.7446 15.7467 93.0512 15.84C93.3579 15.9333 93.6712 16.0333 93.9912 16.14C94.3112 16.2467 94.6246 16.37 94.9312 16.51C95.2379 16.65 95.5112 16.8233 95.7512 17.03C95.9912 17.23 96.1846 17.4767 96.3312 17.77C96.4779 18.0567 96.5512 18.4067 96.5512 18.82C96.5512 19.3 96.4646 19.7433 96.2912 20.15C96.1179 20.5567 95.8646 20.91 95.5312 21.21C95.1979 21.51 94.7812 21.7433 94.2812 21.91C93.7879 22.0767 93.2212 22.16 92.5812 22.16C92.2279 22.16 91.8846 22.1267 91.5512 22.06C91.2246 22 90.9112 21.9167 90.6112 21.81C90.3179 21.6967 90.0412 21.5633 89.7812 21.41C89.5279 21.2567 89.3012 21.09 89.1012 20.91L89.6012 20.09C89.6612 19.99 89.7346 19.9133 89.8212 19.86C89.9146 19.8 90.0279 19.77 90.1612 19.77C90.3012 19.77 90.4379 19.8167 90.5712 19.91C90.7112 19.9967 90.8712 20.0933 91.0512 20.2C91.2379 20.3067 91.4612 20.4067 91.7212 20.5C91.9812 20.5867 92.3046 20.63 92.6912 20.63C93.0112 20.63 93.2879 20.5933 93.5212 20.52C93.7546 20.44 93.9479 20.3333 94.1012 20.2C94.2546 20.0667 94.3679 19.9167 94.4412 19.75C94.5146 19.5767 94.5512 19.3933 94.5512 19.2C94.5512 18.94 94.4779 18.7267 94.3312 18.56C94.1846 18.3933 93.9879 18.25 93.7412 18.13C93.5012 18.01 93.2246 17.9033 92.9112 17.81C92.6046 17.7167 92.2912 17.6167 91.9712 17.51C91.6512 17.4033 91.3346 17.28 91.0212 17.14C90.7146 17 90.4379 16.8233 90.1912 16.61C89.9512 16.39 89.7579 16.1267 89.6112 15.82C89.4646 15.5067 89.3912 15.1267 89.3912 14.68C89.3912 14.2733 89.4712 13.8867 89.6312 13.52C89.7979 13.1533 90.0379 12.83 90.3512 12.55C90.6712 12.27 91.0612 12.05 91.5212 11.89C91.9879 11.7233 92.5246 11.64 93.1312 11.64C93.8179 11.64 94.4412 11.75 95.0012 11.97C95.5612 12.19 96.0312 12.49 96.4112 12.87L95.9312 13.65Z" fill="black"/>
<path d="M99.9417 22.11C99.8417 22.3833 99.6817 22.5867 99.4617 22.72C99.2417 22.86 99.0184 22.93 98.7917 22.93H97.8817L103.802 7.97001C103.895 7.72334 104.038 7.53335 104.232 7.40001C104.432 7.26668 104.658 7.20001 104.912 7.20001H105.822L99.9417 22.11Z" fill="black"/>
<path d="M124.941 14.91V20.61C123.508 21.6433 121.841 22.16 119.941 22.16C118.775 22.16 117.718 21.98 116.771 21.62C115.831 21.2533 115.028 20.7467 114.361 20.1C113.695 19.4467 113.181 18.67 112.821 17.77C112.461 16.87 112.281 15.88 112.281 14.8C112.281 13.7133 112.455 12.72 112.801 11.82C113.148 10.9133 113.645 10.1367 114.291 9.49001C114.938 8.83668 115.718 8.33335 116.631 7.98001C117.545 7.62001 118.571 7.44001 119.711 7.44001C120.291 7.44001 120.828 7.48668 121.321 7.58001C121.821 7.66668 122.285 7.79001 122.711 7.95001C123.138 8.11001 123.531 8.30335 123.891 8.53001C124.251 8.75668 124.581 9.01001 124.881 9.29001L124.211 10.36C124.105 10.5267 123.968 10.63 123.801 10.67C123.635 10.71 123.455 10.67 123.261 10.55C123.068 10.4367 122.861 10.3167 122.641 10.19C122.428 10.0633 122.181 9.94668 121.901 9.84001C121.621 9.72668 121.298 9.63668 120.931 9.57001C120.565 9.49668 120.131 9.46001 119.631 9.46001C118.871 9.46001 118.185 9.58668 117.571 9.84001C116.965 10.0867 116.445 10.4433 116.011 10.91C115.578 11.37 115.245 11.93 115.011 12.59C114.778 13.25 114.661 13.9867 114.661 14.8C114.661 15.66 114.785 16.43 115.031 17.11C115.278 17.7833 115.628 18.3567 116.081 18.83C116.535 19.2967 117.081 19.6533 117.721 19.9C118.368 20.1467 119.088 20.27 119.881 20.27C120.475 20.27 121.001 20.2067 121.461 20.08C121.928 19.9533 122.385 19.7767 122.831 19.55V16.69H120.821C120.668 16.69 120.548 16.65 120.461 16.57C120.375 16.4833 120.331 16.3733 120.331 16.24V14.91H124.941Z" fill="black"/>
<path d="M131.595 11.64C132.348 11.64 133.028 11.7633 133.635 12.01C134.248 12.2567 134.768 12.6067 135.195 13.06C135.628 13.5133 135.962 14.0633 136.195 14.71C136.428 15.3567 136.545 16.0833 136.545 16.89C136.545 17.6967 136.428 18.4233 136.195 19.07C135.962 19.7167 135.628 20.27 135.195 20.73C134.768 21.1833 134.248 21.5333 133.635 21.78C133.028 22.0267 132.348 22.15 131.595 22.15C130.835 22.15 130.148 22.0267 129.535 21.78C128.928 21.5333 128.408 21.1833 127.975 20.73C127.542 20.27 127.208 19.7167 126.975 19.07C126.742 18.4233 126.625 17.6967 126.625 16.89C126.625 16.0833 126.742 15.3567 126.975 14.71C127.208 14.0633 127.542 13.5133 127.975 13.06C128.408 12.6067 128.928 12.2567 129.535 12.01C130.148 11.7633 130.835 11.64 131.595 11.64ZM131.595 20.47C132.515 20.47 133.198 20.1633 133.645 19.55C134.098 18.93 134.325 18.0467 134.325 16.9C134.325 15.7533 134.098 14.87 133.645 14.25C133.198 13.6233 132.515 13.31 131.595 13.31C130.662 13.31 129.968 13.6233 129.515 14.25C129.062 14.87 128.835 15.7533 128.835 16.9C128.835 18.0467 129.062 18.93 129.515 19.55C129.968 20.1633 130.662 20.47 131.595 20.47Z" fill="black"/>
<path d="M144.061 17.54C143.294 17.5667 142.647 17.63 142.121 17.73C141.594 17.8233 141.167 17.9467 140.841 18.1C140.514 18.2467 140.277 18.4233 140.131 18.63C139.991 18.8367 139.921 19.0633 139.921 19.31C139.921 19.55 139.957 19.7567 140.031 19.93C140.111 20.0967 140.217 20.2367 140.351 20.35C140.491 20.4567 140.651 20.5367 140.831 20.59C141.017 20.6367 141.221 20.66 141.441 20.66C142.001 20.66 142.481 20.5567 142.881 20.35C143.287 20.1367 143.681 19.83 144.061 19.43V17.54ZM138.361 13.22C139.514 12.1467 140.887 11.61 142.481 11.61C143.067 11.61 143.587 11.7067 144.041 11.9C144.501 12.0867 144.884 12.3533 145.191 12.7C145.504 13.0467 145.741 13.46 145.901 13.94C146.067 14.4133 146.151 14.94 146.151 15.52V22H145.191C144.984 22 144.827 21.97 144.721 21.91C144.614 21.8433 144.524 21.7133 144.451 21.52L144.241 20.69C143.981 20.9233 143.724 21.1333 143.471 21.32C143.217 21.5 142.954 21.6533 142.681 21.78C142.414 21.9067 142.124 22 141.811 22.06C141.504 22.1267 141.164 22.16 140.791 22.16C140.377 22.16 139.991 22.1033 139.631 21.99C139.277 21.8767 138.971 21.7067 138.711 21.48C138.451 21.2467 138.244 20.96 138.091 20.62C137.944 20.28 137.871 19.88 137.871 19.42C137.871 19.0267 137.974 18.6433 138.181 18.27C138.394 17.8967 138.741 17.5633 139.221 17.27C139.707 16.97 140.344 16.7233 141.131 16.53C141.924 16.3367 142.901 16.2267 144.061 16.2V15.52C144.061 14.7867 143.904 14.24 143.591 13.88C143.277 13.52 142.817 13.34 142.211 13.34C141.797 13.34 141.451 13.3933 141.171 13.5C140.891 13.6 140.647 13.71 140.441 13.83C140.234 13.95 140.051 14.0633 139.891 14.17C139.731 14.27 139.561 14.32 139.381 14.32C139.234 14.32 139.107 14.2833 139.001 14.21C138.901 14.13 138.817 14.0333 138.751 13.92L138.361 13.22Z" fill="black"/>
<path d="M150.859 7.20001V22H148.709V7.20001H150.859Z" fill="black"/>
<path d="M159.603 13.65C159.55 13.7433 159.49 13.81 159.423 13.85C159.356 13.89 159.273 13.91 159.173 13.91C159.06 13.91 158.936 13.8767 158.803 13.81C158.67 13.7367 158.513 13.6567 158.333 13.57C158.153 13.4833 157.94 13.4067 157.693 13.34C157.453 13.2667 157.17 13.23 156.843 13.23C156.576 13.23 156.333 13.2633 156.113 13.33C155.9 13.39 155.716 13.48 155.563 13.6C155.416 13.7133 155.303 13.85 155.223 14.01C155.143 14.1633 155.103 14.33 155.103 14.51C155.103 14.75 155.176 14.95 155.323 15.11C155.47 15.27 155.663 15.41 155.903 15.53C156.143 15.6433 156.416 15.7467 156.723 15.84C157.03 15.9333 157.343 16.0333 157.663 16.14C157.983 16.2467 158.296 16.37 158.603 16.51C158.91 16.65 159.183 16.8233 159.423 17.03C159.663 17.23 159.856 17.4767 160.003 17.77C160.15 18.0567 160.223 18.4067 160.223 18.82C160.223 19.3 160.136 19.7433 159.963 20.15C159.79 20.5567 159.536 20.91 159.203 21.21C158.87 21.51 158.453 21.7433 157.953 21.91C157.46 22.0767 156.893 22.16 156.253 22.16C155.9 22.16 155.556 22.1267 155.223 22.06C154.896 22 154.583 21.9167 154.283 21.81C153.99 21.6967 153.713 21.5633 153.453 21.41C153.2 21.2567 152.973 21.09 152.773 20.91L153.273 20.09C153.333 19.99 153.406 19.9133 153.493 19.86C153.586 19.8 153.7 19.77 153.833 19.77C153.973 19.77 154.11 19.8167 154.243 19.91C154.383 19.9967 154.543 20.0933 154.723 20.2C154.91 20.3067 155.133 20.4067 155.393 20.5C155.653 20.5867 155.976 20.63 156.363 20.63C156.683 20.63 156.96 20.5933 157.193 20.52C157.426 20.44 157.62 20.3333 157.773 20.2C157.926 20.0667 158.04 19.9167 158.113 19.75C158.186 19.5767 158.223 19.3933 158.223 19.2C158.223 18.94 158.15 18.7267 158.003 18.56C157.856 18.3933 157.66 18.25 157.413 18.13C157.173 18.01 156.896 17.9033 156.583 17.81C156.276 17.7167 155.963 17.6167 155.643 17.51C155.323 17.4033 155.006 17.28 154.693 17.14C154.386 17 154.11 16.8233 153.863 16.61C153.623 16.39 153.43 16.1267 153.283 15.82C153.136 15.5067 153.063 15.1267 153.063 14.68C153.063 14.2733 153.143 13.8867 153.303 13.52C153.47 13.1533 153.71 12.83 154.023 12.55C154.343 12.27 154.733 12.05 155.193 11.89C155.66 11.7233 156.196 11.64 156.803 11.64C157.49 11.64 158.113 11.75 158.673 11.97C159.233 12.19 159.703 12.49 160.083 12.87L159.603 13.65Z" fill="black"/>
<path d="M187.06 114H184.71V99.6H187.06V114Z" fill="black"/>
<path d="M191.925 105.15C192.145 104.923 192.372 104.72 192.605 104.54C192.845 104.353 193.099 104.193 193.365 104.06C193.632 103.927 193.915 103.823 194.215 103.75C194.515 103.677 194.842 103.64 195.195 103.64C195.755 103.64 196.245 103.733 196.665 103.92C197.092 104.107 197.449 104.37 197.735 104.71C198.029 105.05 198.249 105.46 198.395 105.94C198.542 106.413 198.615 106.937 198.615 107.51V114H196.475V107.51C196.475 106.823 196.315 106.29 195.995 105.91C195.682 105.53 195.202 105.34 194.555 105.34C194.075 105.34 193.629 105.45 193.215 105.67C192.809 105.89 192.425 106.19 192.065 106.57V114H189.915V103.8H191.215C191.509 103.8 191.695 103.937 191.775 104.21L191.925 105.15Z" fill="black"/>
<path d="M201.641 114V105.51L200.641 105.37C200.474 105.337 200.337 105.277 200.231 105.19C200.131 105.103 200.081 104.98 200.081 104.82V103.94H201.641V103.08C201.641 102.5 201.724 101.98 201.891 101.52C202.064 101.06 202.307 100.67 202.621 100.35C202.941 100.03 203.327 99.7867 203.781 99.62C204.234 99.4467 204.744 99.36 205.311 99.36C205.544 99.36 205.764 99.3767 205.971 99.41C206.184 99.4433 206.391 99.4933 206.591 99.56L206.551 100.64C206.537 100.82 206.447 100.927 206.281 100.96C206.121 100.993 205.917 101.01 205.671 101.01C205.371 101.01 205.101 101.047 204.861 101.12C204.621 101.187 204.414 101.303 204.241 101.47C204.074 101.637 203.944 101.857 203.851 102.13C203.764 102.403 203.721 102.743 203.721 103.15V103.94H206.511V105.49H203.791V114H201.641Z" fill="black"/>
<path d="M212.157 103.64C212.911 103.64 213.591 103.763 214.197 104.01C214.811 104.257 215.331 104.607 215.757 105.06C216.191 105.513 216.524 106.063 216.757 106.71C216.991 107.357 217.107 108.083 217.107 108.89C217.107 109.697 216.991 110.423 216.757 111.07C216.524 111.717 216.191 112.27 215.757 112.73C215.331 113.183 214.811 113.533 214.197 113.78C213.591 114.027 212.911 114.15 212.157 114.15C211.397 114.15 210.711 114.027 210.097 113.78C209.491 113.533 208.971 113.183 208.537 112.73C208.104 112.27 207.771 111.717 207.537 111.07C207.304 110.423 207.187 109.697 207.187 108.89C207.187 108.083 207.304 107.357 207.537 106.71C207.771 106.063 208.104 105.513 208.537 105.06C208.971 104.607 209.491 104.257 210.097 104.01C210.711 103.763 211.397 103.64 212.157 103.64ZM212.157 112.47C213.077 112.47 213.761 112.163 214.207 111.55C214.661 110.93 214.887 110.047 214.887 108.9C214.887 107.753 214.661 106.87 214.207 106.25C213.761 105.623 213.077 105.31 212.157 105.31C211.224 105.31 210.531 105.623 210.077 106.25C209.624 106.87 209.397 107.753 209.397 108.9C209.397 110.047 209.624 110.93 210.077 111.55C210.531 112.163 211.224 112.47 212.157 112.47Z" fill="black"/>
<path d="M221.203 105.69C221.523 105.043 221.91 104.537 222.363 104.17C222.817 103.797 223.36 103.61 223.993 103.61C224.213 103.61 224.42 103.637 224.613 103.69C224.807 103.737 224.98 103.81 225.133 103.91L224.983 105.53C224.957 105.643 224.913 105.723 224.853 105.77C224.8 105.81 224.727 105.83 224.633 105.83C224.533 105.83 224.39 105.813 224.203 105.78C224.017 105.74 223.82 105.72 223.613 105.72C223.313 105.72 223.047 105.763 222.813 105.85C222.587 105.937 222.38 106.063 222.193 106.23C222.013 106.397 221.853 106.6 221.713 106.84C221.573 107.08 221.443 107.353 221.323 107.66V114H219.173V103.8H220.423C220.65 103.8 220.807 103.843 220.893 103.93C220.98 104.01 221.04 104.153 221.073 104.36L221.203 105.69Z" fill="black"/>
<path d="M226.556 114V103.8H227.856C228.149 103.8 228.336 103.937 228.416 104.21L228.556 105.1C228.743 104.887 228.936 104.693 229.136 104.52C229.336 104.34 229.549 104.187 229.776 104.06C230.009 103.927 230.256 103.823 230.516 103.75C230.783 103.677 231.069 103.64 231.376 103.64C231.703 103.64 232.003 103.687 232.276 103.78C232.549 103.873 232.789 104.007 232.996 104.18C233.209 104.353 233.393 104.563 233.546 104.81C233.699 105.057 233.826 105.333 233.926 105.64C234.079 105.287 234.273 104.983 234.506 104.73C234.739 104.477 234.999 104.27 235.286 104.11C235.573 103.95 235.876 103.833 236.196 103.76C236.523 103.68 236.853 103.64 237.186 103.64C237.733 103.64 238.219 103.727 238.646 103.9C239.079 104.073 239.443 104.327 239.736 104.66C240.036 104.987 240.263 105.39 240.416 105.87C240.569 106.35 240.646 106.897 240.646 107.51V114H238.496V107.51C238.496 106.79 238.339 106.25 238.026 105.89C237.719 105.523 237.263 105.34 236.656 105.34C236.383 105.34 236.126 105.387 235.886 105.48C235.646 105.573 235.436 105.71 235.256 105.89C235.076 106.07 234.933 106.297 234.826 106.57C234.726 106.837 234.676 107.15 234.676 107.51V114H232.526V107.51C232.526 106.763 232.376 106.217 232.076 105.87C231.776 105.517 231.336 105.34 230.756 105.34C230.356 105.34 229.986 105.443 229.646 105.65C229.306 105.85 228.993 106.127 228.706 106.48V114H226.556Z" fill="black"/>
<path d="M248.608 109.54C247.841 109.567 247.194 109.63 246.668 109.73C246.141 109.823 245.714 109.947 245.388 110.1C245.061 110.247 244.824 110.423 244.678 110.63C244.538 110.837 244.468 111.063 244.468 111.31C244.468 111.55 244.504 111.757 244.578 111.93C244.658 112.097 244.764 112.237 244.898 112.35C245.038 112.457 245.198 112.537 245.378 112.59C245.564 112.637 245.768 112.66 245.988 112.66C246.548 112.66 247.028 112.557 247.428 112.35C247.834 112.137 248.228 111.83 248.608 111.43V109.54ZM242.908 105.22C244.061 104.147 245.434 103.61 247.028 103.61C247.614 103.61 248.134 103.707 248.588 103.9C249.048 104.087 249.431 104.353 249.738 104.7C250.051 105.047 250.288 105.46 250.448 105.94C250.614 106.413 250.698 106.94 250.698 107.52V114H249.738C249.531 114 249.374 113.97 249.268 113.91C249.161 113.843 249.071 113.713 248.998 113.52L248.788 112.69C248.528 112.923 248.271 113.133 248.018 113.32C247.764 113.5 247.501 113.653 247.228 113.78C246.961 113.907 246.671 114 246.358 114.06C246.051 114.127 245.711 114.16 245.338 114.16C244.924 114.16 244.538 114.103 244.178 113.99C243.824 113.877 243.518 113.707 243.258 113.48C242.998 113.247 242.791 112.96 242.638 112.62C242.491 112.28 242.418 111.88 242.418 111.42C242.418 111.027 242.521 110.643 242.728 110.27C242.941 109.897 243.288 109.563 243.768 109.27C244.254 108.97 244.891 108.723 245.678 108.53C246.471 108.337 247.448 108.227 248.608 108.2V107.52C248.608 106.787 248.451 106.24 248.138 105.88C247.824 105.52 247.364 105.34 246.758 105.34C246.344 105.34 245.998 105.393 245.718 105.5C245.438 105.6 245.194 105.71 244.988 105.83C244.781 105.95 244.598 106.063 244.438 106.17C244.278 106.27 244.108 106.32 243.928 106.32C243.781 106.32 243.654 106.283 243.548 106.21C243.448 106.13 243.364 106.033 243.298 105.92L242.908 105.22Z" fill="black"/>
<path d="M262.98 114H260.83V105.49H255.86V111.28C255.86 111.647 255.95 111.927 256.13 112.12C256.31 112.313 256.55 112.41 256.85 112.41C257.016 112.41 257.16 112.39 257.28 112.35C257.4 112.303 257.503 112.257 257.59 112.21C257.676 112.157 257.75 112.11 257.81 112.07C257.876 112.023 257.94 112 258 112C258.12 112 258.216 112.067 258.29 112.2L258.93 113.25C258.596 113.543 258.203 113.77 257.75 113.93C257.296 114.083 256.83 114.16 256.35 114.16C255.503 114.16 254.85 113.923 254.39 113.45C253.936 112.97 253.71 112.297 253.71 111.43V105.49H252.59C252.47 105.49 252.366 105.453 252.28 105.38C252.193 105.3 252.15 105.183 252.15 105.03V104.16L253.8 103.92L254.27 100.97C254.303 100.857 254.36 100.767 254.44 100.7C254.52 100.627 254.626 100.59 254.76 100.59H255.86V103.94H262.98V114ZM263.42 100.67C263.42 100.863 263.38 101.047 263.3 101.22C263.226 101.387 263.123 101.537 262.99 101.67C262.856 101.797 262.7 101.9 262.52 101.98C262.346 102.053 262.163 102.09 261.97 102.09C261.776 102.09 261.593 102.053 261.42 101.98C261.253 101.9 261.103 101.797 260.97 101.67C260.843 101.537 260.74 101.387 260.66 101.22C260.586 101.047 260.55 100.863 260.55 100.67C260.55 100.47 260.586 100.283 260.66 100.11C260.74 99.93 260.843 99.7767 260.97 99.65C261.103 99.5167 261.253 99.4133 261.42 99.34C261.593 99.26 261.776 99.22 261.97 99.22C262.163 99.22 262.346 99.26 262.52 99.34C262.7 99.4133 262.856 99.5167 262.99 99.65C263.123 99.7767 263.226 99.93 263.3 100.11C263.38 100.283 263.42 100.47 263.42 100.67Z" fill="black"/>
<path d="M270.107 103.64C270.86 103.64 271.54 103.763 272.147 104.01C272.76 104.257 273.28 104.607 273.707 105.06C274.14 105.513 274.473 106.063 274.707 106.71C274.94 107.357 275.057 108.083 275.057 108.89C275.057 109.697 274.94 110.423 274.707 111.07C274.473 111.717 274.14 112.27 273.707 112.73C273.28 113.183 272.76 113.533 272.147 113.78C271.54 114.027 270.86 114.15 270.107 114.15C269.347 114.15 268.66 114.027 268.047 113.78C267.44 113.533 266.92 113.183 266.487 112.73C266.053 112.27 265.72 111.717 265.487 111.07C265.253 110.423 265.137 109.697 265.137 108.89C265.137 108.083 265.253 107.357 265.487 106.71C265.72 106.063 266.053 105.513 266.487 105.06C266.92 104.607 267.44 104.257 268.047 104.01C268.66 103.763 269.347 103.64 270.107 103.64ZM270.107 112.47C271.027 112.47 271.71 112.163 272.157 111.55C272.61 110.93 272.837 110.047 272.837 108.9C272.837 107.753 272.61 106.87 272.157 106.25C271.71 105.623 271.027 105.31 270.107 105.31C269.173 105.31 268.48 105.623 268.027 106.25C267.573 106.87 267.347 107.753 267.347 108.9C267.347 110.047 267.573 110.93 268.027 111.55C268.48 112.163 269.173 112.47 270.107 112.47Z" fill="black"/>
<path d="M279.132 105.15C279.352 104.923 279.579 104.72 279.812 104.54C280.052 104.353 280.306 104.193 280.572 104.06C280.839 103.927 281.122 103.823 281.422 103.75C281.722 103.677 282.049 103.64 282.402 103.64C282.962 103.64 283.452 103.733 283.872 103.92C284.299 104.107 284.656 104.37 284.942 104.71C285.236 105.05 285.456 105.46 285.602 105.94C285.749 106.413 285.822 106.937 285.822 107.51V114H283.682V107.51C283.682 106.823 283.522 106.29 283.202 105.91C282.889 105.53 282.409 105.34 281.762 105.34C281.282 105.34 280.836 105.45 280.422 105.67C280.016 105.89 279.632 106.19 279.272 106.57V114H277.122V103.8H278.422C278.716 103.8 278.902 103.937 278.982 104.21L279.132 105.15Z" fill="black"/>
<path d="M300.67 108.6L298.69 103.34C298.53 102.933 298.367 102.417 298.2 101.79C298.127 102.103 298.047 102.393 297.96 102.66C297.873 102.92 297.793 103.15 297.72 103.35L295.74 108.6H300.67ZM305.1 114H303.29C303.083 114 302.917 113.95 302.79 113.85C302.663 113.743 302.567 113.613 302.5 113.46L301.3 110.28H295.1L293.9 113.46C293.847 113.593 293.753 113.717 293.62 113.83C293.487 113.943 293.32 114 293.12 114H291.31L297.02 99.6H299.39L305.1 114Z" fill="black"/>
<path d="M308.371 105.69C308.691 105.043 309.078 104.537 309.531 104.17C309.985 103.797 310.528 103.61 311.161 103.61C311.381 103.61 311.588 103.637 311.781 103.69C311.975 103.737 312.148 103.81 312.301 103.91L312.151 105.53C312.125 105.643 312.081 105.723 312.021 105.77C311.968 105.81 311.895 105.83 311.801 105.83C311.701 105.83 311.558 105.813 311.371 105.78C311.185 105.74 310.988 105.72 310.781 105.72C310.481 105.72 310.215 105.763 309.981 105.85C309.755 105.937 309.548 106.063 309.361 106.23C309.181 106.397 309.021 106.6 308.881 106.84C308.741 107.08 308.611 107.353 308.491 107.66V114H306.341V103.8H307.591C307.818 103.8 307.975 103.843 308.061 103.93C308.148 104.01 308.208 104.153 308.241 104.36L308.371 105.69Z" fill="black"/>
<path d="M320.582 105.8C320.516 105.887 320.452 105.953 320.392 106C320.332 106.047 320.246 106.07 320.132 106.07C320.019 106.07 319.899 106.03 319.772 105.95C319.652 105.87 319.506 105.783 319.332 105.69C319.166 105.59 318.962 105.5 318.722 105.42C318.482 105.34 318.182 105.3 317.822 105.3C317.356 105.3 316.946 105.383 316.592 105.55C316.246 105.717 315.952 105.957 315.712 106.27C315.479 106.577 315.302 106.953 315.182 107.4C315.069 107.84 315.012 108.337 315.012 108.89C315.012 109.463 315.076 109.973 315.202 110.42C315.329 110.867 315.509 111.243 315.742 111.55C315.982 111.857 316.269 112.09 316.602 112.25C316.942 112.41 317.322 112.49 317.742 112.49C318.156 112.49 318.492 112.44 318.752 112.34C319.012 112.24 319.229 112.13 319.402 112.01C319.576 111.89 319.722 111.78 319.842 111.68C319.969 111.58 320.102 111.53 320.242 111.53C320.416 111.53 320.549 111.597 320.642 111.73L321.252 112.52C321.006 112.82 320.732 113.073 320.432 113.28C320.132 113.487 319.816 113.657 319.482 113.79C319.149 113.917 318.802 114.007 318.442 114.06C318.082 114.12 317.719 114.15 317.352 114.15C316.719 114.15 316.126 114.033 315.572 113.8C315.026 113.56 314.546 113.217 314.132 112.77C313.726 112.317 313.402 111.767 313.162 111.12C312.929 110.467 312.812 109.723 312.812 108.89C312.812 108.137 312.919 107.44 313.132 106.8C313.346 106.153 313.656 105.597 314.062 105.13C314.476 104.663 314.986 104.3 315.592 104.04C316.199 103.773 316.899 103.64 317.692 103.64C318.432 103.64 319.082 103.76 319.642 104C320.209 104.24 320.712 104.58 321.152 105.02L320.582 105.8Z" fill="black"/>
<path d="M325.132 105.01C325.552 104.597 326.012 104.267 326.512 104.02C327.012 103.767 327.595 103.64 328.262 103.64C328.822 103.64 329.312 103.733 329.732 103.92C330.159 104.107 330.515 104.37 330.802 104.71C331.095 105.05 331.315 105.46 331.462 105.94C331.609 106.413 331.682 106.937 331.682 107.51V114H329.542V107.51C329.542 106.823 329.382 106.29 329.062 105.91C328.749 105.53 328.269 105.34 327.622 105.34C327.142 105.34 326.695 105.45 326.282 105.67C325.875 105.89 325.492 106.19 325.132 106.57V114H322.982V99.2H325.132V105.01Z" fill="black"/>
<path d="M336.433 103.8V114H334.283V103.8H336.433ZM336.793 100.72C336.793 100.913 336.753 101.097 336.673 101.27C336.599 101.443 336.496 101.597 336.363 101.73C336.229 101.857 336.073 101.96 335.893 102.04C335.719 102.113 335.533 102.15 335.333 102.15C335.139 102.15 334.956 102.113 334.783 102.04C334.616 101.96 334.469 101.857 334.343 101.73C334.216 101.597 334.113 101.443 334.033 101.27C333.959 101.097 333.923 100.913 333.923 100.72C333.923 100.52 333.959 100.333 334.033 100.16C334.113 99.9867 334.216 99.8367 334.343 99.71C334.469 99.5767 334.616 99.4733 334.783 99.4C334.956 99.32 335.139 99.28 335.333 99.28C335.533 99.28 335.719 99.32 335.893 99.4C336.073 99.4733 336.229 99.5767 336.363 99.71C336.496 99.8367 336.599 99.9867 336.673 100.16C336.753 100.333 336.793 100.52 336.793 100.72Z" fill="black"/>
<path d="M342.404 114.16C341.558 114.16 340.904 113.923 340.444 113.45C339.991 112.97 339.764 112.297 339.764 111.43V105.49H338.644C338.524 105.49 338.421 105.453 338.334 105.38C338.248 105.3 338.204 105.183 338.204 105.03V104.16L339.854 103.92L340.324 100.97C340.358 100.857 340.414 100.767 340.494 100.7C340.574 100.627 340.681 100.59 340.814 100.59H341.914V103.94H344.744V105.49H341.914V111.28C341.914 111.647 342.004 111.927 342.184 112.12C342.364 112.313 342.604 112.41 342.904 112.41C343.071 112.41 343.214 112.39 343.334 112.35C343.454 112.303 343.558 112.257 343.644 112.21C343.731 112.157 343.804 112.11 343.864 112.07C343.931 112.023 343.994 112 344.054 112C344.174 112 344.271 112.067 344.344 112.2L344.984 113.25C344.651 113.543 344.258 113.77 343.804 113.93C343.351 114.083 342.884 114.16 342.404 114.16Z" fill="black"/>
<path d="M353.051 107.75C353.051 107.39 352.997 107.057 352.891 106.75C352.791 106.437 352.641 106.167 352.441 105.94C352.241 105.707 351.991 105.527 351.691 105.4C351.397 105.267 351.057 105.2 350.671 105.2C349.891 105.2 349.277 105.423 348.831 105.87C348.384 106.317 348.101 106.943 347.981 107.75H353.051ZM347.921 109.07C347.947 109.65 348.037 110.153 348.191 110.58C348.344 111 348.547 111.35 348.801 111.63C349.061 111.91 349.367 112.12 349.721 112.26C350.081 112.393 350.481 112.46 350.921 112.46C351.341 112.46 351.704 112.413 352.011 112.32C352.317 112.22 352.584 112.113 352.811 112C353.037 111.88 353.231 111.773 353.391 111.68C353.551 111.58 353.697 111.53 353.831 111.53C354.004 111.53 354.137 111.597 354.231 111.73L354.841 112.52C354.587 112.82 354.301 113.073 353.981 113.28C353.661 113.487 353.321 113.657 352.961 113.79C352.601 113.917 352.231 114.007 351.851 114.06C351.471 114.12 351.101 114.15 350.741 114.15C350.034 114.15 349.377 114.033 348.771 113.8C348.171 113.56 347.647 113.21 347.201 112.75C346.761 112.29 346.414 111.72 346.161 111.04C345.914 110.36 345.791 109.577 345.791 108.69C345.791 107.983 345.901 107.323 346.121 106.71C346.347 106.097 346.667 105.563 347.081 105.11C347.501 104.657 348.007 104.3 348.601 104.04C349.201 103.773 349.877 103.64 350.631 103.64C351.257 103.64 351.837 103.743 352.371 103.95C352.904 104.15 353.364 104.447 353.751 104.84C354.137 105.233 354.437 105.717 354.651 106.29C354.871 106.857 354.981 107.503 354.981 108.23C354.981 108.563 354.944 108.787 354.871 108.9C354.797 109.013 354.664 109.07 354.471 109.07H347.921Z" fill="black"/>
<path d="M364.196 105.8C364.129 105.887 364.066 105.953 364.006 106C363.946 106.047 363.859 106.07 363.746 106.07C363.632 106.07 363.512 106.03 363.386 105.95C363.266 105.87 363.119 105.783 362.946 105.69C362.779 105.59 362.576 105.5 362.336 105.42C362.096 105.34 361.796 105.3 361.436 105.3C360.969 105.3 360.559 105.383 360.206 105.55C359.859 105.717 359.566 105.957 359.326 106.27C359.092 106.577 358.916 106.953 358.796 107.4C358.682 107.84 358.626 108.337 358.626 108.89C358.626 109.463 358.689 109.973 358.816 110.42C358.942 110.867 359.122 111.243 359.356 111.55C359.596 111.857 359.882 112.09 360.216 112.25C360.556 112.41 360.936 112.49 361.356 112.49C361.769 112.49 362.106 112.44 362.366 112.34C362.626 112.24 362.842 112.13 363.016 112.01C363.189 111.89 363.336 111.78 363.456 111.68C363.582 111.58 363.716 111.53 363.856 111.53C364.029 111.53 364.162 111.597 364.256 111.73L364.866 112.52C364.619 112.82 364.346 113.073 364.046 113.28C363.746 113.487 363.429 113.657 363.096 113.79C362.762 113.917 362.416 114.007 362.056 114.06C361.696 114.12 361.332 114.15 360.966 114.15C360.332 114.15 359.739 114.033 359.186 113.8C358.639 113.56 358.159 113.217 357.746 112.77C357.339 112.317 357.016 111.767 356.776 111.12C356.542 110.467 356.426 109.723 356.426 108.89C356.426 108.137 356.532 107.44 356.746 106.8C356.959 106.153 357.269 105.597 357.676 105.13C358.089 104.663 358.599 104.3 359.206 104.04C359.812 103.773 360.512 103.64 361.306 103.64C362.046 103.64 362.696 103.76 363.256 104C363.822 104.24 364.326 104.58 364.766 105.02L364.196 105.8Z" fill="black"/>
<path d="M369.865 114.16C369.018 114.16 368.365 113.923 367.905 113.45C367.452 112.97 367.225 112.297 367.225 111.43V105.49H366.105C365.985 105.49 365.882 105.453 365.795 105.38C365.708 105.3 365.665 105.183 365.665 105.03V104.16L367.315 103.92L367.785 100.97C367.818 100.857 367.875 100.767 367.955 100.7C368.035 100.627 368.142 100.59 368.275 100.59H369.375V103.94H372.205V105.49H369.375V111.28C369.375 111.647 369.465 111.927 369.645 112.12C369.825 112.313 370.065 112.41 370.365 112.41C370.532 112.41 370.675 112.39 370.795 112.35C370.915 112.303 371.018 112.257 371.105 112.21C371.192 112.157 371.265 112.11 371.325 112.07C371.392 112.023 371.455 112 371.515 112C371.635 112 371.732 112.067 371.805 112.2L372.445 113.25C372.112 113.543 371.718 113.77 371.265 113.93C370.812 114.083 370.345 114.16 369.865 114.16Z" fill="black"/>
<path d="M382.5 103.8V114H381.2C380.913 114 380.73 113.863 380.65 113.59L380.49 112.64C380.276 112.867 380.05 113.073 379.81 113.26C379.576 113.447 379.326 113.607 379.06 113.74C378.793 113.873 378.506 113.977 378.2 114.05C377.9 114.123 377.576 114.16 377.23 114.16C376.67 114.16 376.176 114.067 375.75 113.88C375.323 113.693 374.963 113.43 374.67 113.09C374.383 112.75 374.166 112.343 374.02 111.87C373.873 111.39 373.8 110.863 373.8 110.29V103.8H375.95V110.29C375.95 110.977 376.106 111.51 376.42 111.89C376.74 112.27 377.223 112.46 377.87 112.46C378.343 112.46 378.783 112.353 379.19 112.14C379.603 111.92 379.99 111.62 380.35 111.24V103.8H382.5Z" fill="black"/>
<path d="M387.141 105.69C387.461 105.043 387.847 104.537 388.301 104.17C388.754 103.797 389.297 103.61 389.931 103.61C390.151 103.61 390.357 103.637 390.551 103.69C390.744 103.737 390.917 103.81 391.071 103.91L390.921 105.53C390.894 105.643 390.851 105.723 390.791 105.77C390.737 105.81 390.664 105.83 390.571 105.83C390.471 105.83 390.327 105.813 390.141 105.78C389.954 105.74 389.757 105.72 389.551 105.72C389.251 105.72 388.984 105.763 388.751 105.85C388.524 105.937 388.317 106.063 388.131 106.23C387.951 106.397 387.791 106.6 387.651 106.84C387.511 107.08 387.381 107.353 387.261 107.66V114H385.111V103.8H386.361C386.587 103.8 386.744 103.843 386.831 103.93C386.917 104.01 386.977 104.153 387.011 104.36L387.141 105.69Z" fill="black"/>
<path d="M398.832 107.75C398.832 107.39 398.779 107.057 398.672 106.75C398.572 106.437 398.422 106.167 398.222 105.94C398.022 105.707 397.772 105.527 397.472 105.4C397.179 105.267 396.839 105.2 396.452 105.2C395.672 105.2 395.059 105.423 394.612 105.87C394.165 106.317 393.882 106.943 393.762 107.75H398.832ZM393.702 109.07C393.729 109.65 393.819 110.153 393.972 110.58C394.125 111 394.329 111.35 394.582 111.63C394.842 111.91 395.149 112.12 395.502 112.26C395.862 112.393 396.262 112.46 396.702 112.46C397.122 112.46 397.485 112.413 397.792 112.32C398.099 112.22 398.365 112.113 398.592 112C398.819 111.88 399.012 111.773 399.172 111.68C399.332 111.58 399.479 111.53 399.612 111.53C399.785 111.53 399.919 111.597 400.012 111.73L400.622 112.52C400.369 112.82 400.082 113.073 399.762 113.28C399.442 113.487 399.102 113.657 398.742 113.79C398.382 113.917 398.012 114.007 397.632 114.06C397.252 114.12 396.882 114.15 396.522 114.15C395.815 114.15 395.159 114.033 394.552 113.8C393.952 113.56 393.429 113.21 392.982 112.75C392.542 112.29 392.195 111.72 391.942 111.04C391.695 110.36 391.572 109.577 391.572 108.69C391.572 107.983 391.682 107.323 391.902 106.71C392.129 106.097 392.449 105.563 392.862 105.11C393.282 104.657 393.789 104.3 394.382 104.04C394.982 103.773 395.659 103.64 396.412 103.64C397.039 103.64 397.619 103.743 398.152 103.95C398.685 104.15 399.145 104.447 399.532 104.84C399.919 105.233 400.219 105.717 400.432 106.29C400.652 106.857 400.762 107.503 400.762 108.23C400.762 108.563 400.725 108.787 400.652 108.9C400.579 109.013 400.445 109.07 400.252 109.07H393.702Z" fill="black"/>
<path d="M474.06 15H471.71V0.600012H474.06V15Z" fill="black"/>
<path d="M483.289 7.31001C482.989 6.92335 482.659 6.65335 482.299 6.50001C481.939 6.34668 481.549 6.27001 481.129 6.27001C480.289 6.27001 479.632 6.58001 479.159 7.20001C478.685 7.81335 478.449 8.72335 478.449 9.93001C478.449 10.5567 478.502 11.0933 478.609 11.54C478.715 11.98 478.869 12.34 479.069 12.62C479.269 12.9 479.512 13.1033 479.799 13.23C480.085 13.3567 480.409 13.42 480.769 13.42C481.315 13.42 481.785 13.3033 482.179 13.07C482.579 12.83 482.949 12.4933 483.289 12.06V7.31001ZM485.439 0.200012V15H484.139C483.852 15 483.669 14.8633 483.589 14.59L483.399 13.48C482.972 13.98 482.485 14.3833 481.939 14.69C481.399 14.9967 480.769 15.15 480.049 15.15C479.475 15.15 478.955 15.0367 478.489 14.81C478.022 14.5767 477.622 14.24 477.289 13.8C476.955 13.36 476.695 12.8167 476.509 12.17C476.329 11.5167 476.239 10.77 476.239 9.93001C476.239 9.17001 476.339 8.46668 476.539 7.82001C476.745 7.17335 477.039 6.61334 477.419 6.14001C477.799 5.66001 478.259 5.28668 478.799 5.02001C479.345 4.74668 479.955 4.61001 480.629 4.61001C481.229 4.61001 481.739 4.70668 482.159 4.90001C482.579 5.08668 482.955 5.35001 483.289 5.69001V0.200012H485.439Z" fill="black"/>
<path d="M494.758 8.75001C494.758 8.39001 494.704 8.05668 494.598 7.75001C494.498 7.43668 494.348 7.16668 494.148 6.94001C493.948 6.70668 493.698 6.52668 493.398 6.40001C493.104 6.26668 492.764 6.20001 492.378 6.20001C491.598 6.20001 490.984 6.42335 490.538 6.87001C490.091 7.31668 489.808 7.94335 489.688 8.75001H494.758ZM489.628 10.07C489.654 10.65 489.744 11.1533 489.898 11.58C490.051 12 490.254 12.35 490.508 12.63C490.768 12.91 491.074 13.12 491.428 13.26C491.788 13.3933 492.188 13.46 492.628 13.46C493.048 13.46 493.411 13.4133 493.718 13.32C494.024 13.22 494.291 13.1133 494.518 13C494.744 12.88 494.938 12.7733 495.098 12.68C495.258 12.58 495.404 12.53 495.538 12.53C495.711 12.53 495.844 12.5967 495.938 12.73L496.548 13.52C496.294 13.82 496.008 14.0733 495.688 14.28C495.368 14.4867 495.028 14.6567 494.668 14.79C494.308 14.9167 493.938 15.0067 493.558 15.06C493.178 15.12 492.808 15.15 492.448 15.15C491.741 15.15 491.084 15.0333 490.478 14.8C489.878 14.56 489.354 14.21 488.908 13.75C488.468 13.29 488.121 12.72 487.868 12.04C487.621 11.36 487.498 10.5767 487.498 9.69001C487.498 8.98335 487.608 8.32335 487.828 7.71001C488.054 7.09668 488.374 6.56335 488.788 6.11001C489.208 5.65668 489.714 5.30001 490.308 5.04001C490.908 4.77334 491.584 4.64001 492.338 4.64001C492.964 4.64001 493.544 4.74335 494.078 4.95001C494.611 5.15001 495.071 5.44668 495.458 5.84001C495.844 6.23335 496.144 6.71668 496.358 7.29001C496.578 7.85668 496.688 8.50335 496.688 9.23001C496.688 9.56335 496.651 9.78668 496.578 9.90001C496.504 10.0133 496.371 10.07 496.178 10.07H489.628Z" fill="black"/>
<path d="M504.143 10.54C503.376 10.5667 502.729 10.63 502.203 10.73C501.676 10.8233 501.249 10.9467 500.923 11.1C500.596 11.2467 500.359 11.4233 500.213 11.63C500.073 11.8367 500.003 12.0633 500.003 12.31C500.003 12.55 500.039 12.7567 500.113 12.93C500.193 13.0967 500.299 13.2367 500.433 13.35C500.573 13.4567 500.733 13.5367 500.913 13.59C501.099 13.6367 501.303 13.66 501.523 13.66C502.083 13.66 502.563 13.5567 502.963 13.35C503.369 13.1367 503.763 12.83 504.143 12.43V10.54ZM498.443 6.22001C499.596 5.14668 500.969 4.61001 502.563 4.61001C503.149 4.61001 503.669 4.70668 504.123 4.90001C504.583 5.08668 504.966 5.35334 505.273 5.70001C505.586 6.04668 505.823 6.46001 505.983 6.94001C506.149 7.41335 506.233 7.94001 506.233 8.52001V15H505.273C505.066 15 504.909 14.97 504.803 14.91C504.696 14.8433 504.606 14.7133 504.533 14.52L504.323 13.69C504.063 13.9233 503.806 14.1333 503.553 14.32C503.299 14.5 503.036 14.6533 502.763 14.78C502.496 14.9067 502.206 15 501.893 15.06C501.586 15.1267 501.246 15.16 500.873 15.16C500.459 15.16 500.073 15.1033 499.713 14.99C499.359 14.8767 499.053 14.7067 498.793 14.48C498.533 14.2467 498.326 13.96 498.173 13.62C498.026 13.28 497.953 12.88 497.953 12.42C497.953 12.0267 498.056 11.6433 498.263 11.27C498.476 10.8967 498.823 10.5633 499.303 10.27C499.789 9.97001 500.426 9.72335 501.213 9.53001C502.006 9.33668 502.983 9.22668 504.143 9.20001V8.52001C504.143 7.78668 503.986 7.24001 503.673 6.88001C503.359 6.52001 502.899 6.34001 502.293 6.34001C501.879 6.34001 501.533 6.39335 501.253 6.50001C500.973 6.60001 500.729 6.71001 500.523 6.83001C500.316 6.95001 500.133 7.06335 499.973 7.17001C499.813 7.27001 499.643 7.32001 499.463 7.32001C499.316 7.32001 499.189 7.28335 499.083 7.21001C498.983 7.13001 498.899 7.03335 498.833 6.92001L498.443 6.22001Z" fill="black"/>
<path d="M518.515 15H516.365V6.49001H511.395V12.28C511.395 12.6467 511.485 12.9267 511.665 13.12C511.845 13.3133 512.085 13.41 512.385 13.41C512.551 13.41 512.695 13.39 512.815 13.35C512.935 13.3033 513.038 13.2567 513.125 13.21C513.211 13.1567 513.285 13.11 513.345 13.07C513.411 13.0233 513.475 13 513.535 13C513.655 13 513.751 13.0667 513.825 13.2L514.465 14.25C514.131 14.5433 513.738 14.77 513.285 14.93C512.831 15.0833 512.365 15.16 511.885 15.16C511.038 15.16 510.385 14.9233 509.925 14.45C509.471 13.97 509.245 13.2967 509.245 12.43V6.49001H508.125C508.005 6.49001 507.901 6.45335 507.815 6.38001C507.728 6.30001 507.685 6.18335 507.685 6.03001V5.16001L509.335 4.92001L509.805 1.97001C509.838 1.85668 509.895 1.76668 509.975 1.70001C510.055 1.62668 510.161 1.59001 510.295 1.59001H511.395V4.94001H518.515V15ZM518.955 1.67001C518.955 1.86335 518.915 2.04668 518.835 2.22001C518.761 2.38668 518.658 2.53668 518.525 2.67001C518.391 2.79668 518.235 2.90001 518.055 2.98001C517.881 3.05334 517.698 3.09001 517.505 3.09001C517.311 3.09001 517.128 3.05334 516.955 2.98001C516.788 2.90001 516.638 2.79668 516.505 2.67001C516.378 2.53668 516.275 2.38668 516.195 2.22001C516.121 2.04668 516.085 1.86335 516.085 1.67001C516.085 1.47001 516.121 1.28335 516.195 1.11001C516.275 0.930012 516.378 0.776679 516.505 0.650012C516.638 0.516679 516.788 0.413345 516.955 0.340012C517.128 0.260012 517.311 0.220012 517.505 0.220012C517.698 0.220012 517.881 0.260012 518.055 0.340012C518.235 0.413345 518.391 0.516679 518.525 0.650012C518.658 0.776679 518.761 0.930012 518.835 1.11001C518.915 1.28335 518.955 1.47001 518.955 1.67001Z" fill="black"/>
<path d="M525.642 4.64001C526.395 4.64001 527.075 4.76335 527.682 5.01001C528.295 5.25668 528.815 5.60668 529.242 6.06001C529.675 6.51335 530.009 7.06335 530.242 7.71001C530.475 8.35668 530.592 9.08335 530.592 9.89001C530.592 10.6967 530.475 11.4233 530.242 12.07C530.009 12.7167 529.675 13.27 529.242 13.73C528.815 14.1833 528.295 14.5333 527.682 14.78C527.075 15.0267 526.395 15.15 525.642 15.15C524.882 15.15 524.195 15.0267 523.582 14.78C522.975 14.5333 522.455 14.1833 522.022 13.73C521.589 13.27 521.255 12.7167 521.022 12.07C520.789 11.4233 520.672 10.6967 520.672 9.89001C520.672 9.08335 520.789 8.35668 521.022 7.71001C521.255 7.06335 521.589 6.51335 522.022 6.06001C522.455 5.60668 522.975 5.25668 523.582 5.01001C524.195 4.76335 524.882 4.64001 525.642 4.64001ZM525.642 13.47C526.562 13.47 527.245 13.1633 527.692 12.55C528.145 11.93 528.372 11.0467 528.372 9.90001C528.372 8.75335 528.145 7.87001 527.692 7.25001C527.245 6.62335 526.562 6.31001 525.642 6.31001C524.709 6.31001 524.015 6.62335 523.562 7.25001C523.109 7.87001 522.882 8.75335 522.882 9.90001C522.882 11.0467 523.109 11.93 523.562 12.55C524.015 13.1633 524.709 13.47 525.642 13.47Z" fill="black"/>
<path d="M534.668 6.15001C534.888 5.92335 535.114 5.72001 535.348 5.54001C535.588 5.35335 535.841 5.19335 536.108 5.06001C536.374 4.92668 536.658 4.82335 536.958 4.75001C537.258 4.67668 537.584 4.64001 537.938 4.64001C538.498 4.64001 538.988 4.73335 539.408 4.92001C539.834 5.10668 540.191 5.37001 540.478 5.71001C540.771 6.05001 540.991 6.46001 541.138 6.94001C541.284 7.41335 541.358 7.93668 541.358 8.51001V15H539.218V8.51001C539.218 7.82335 539.058 7.29001 538.738 6.91001C538.424 6.53001 537.944 6.34001 537.298 6.34001C536.818 6.34001 536.371 6.45001 535.958 6.67001C535.551 6.89001 535.168 7.19001 534.808 7.57001V15H532.658V4.80001H533.958C534.251 4.80001 534.438 4.93668 534.518 5.21001L534.668 6.15001Z" fill="black"/>
<path d="M710.64 91.6L706.16 106H704.05L700.67 95.66C700.63 95.5467 700.59 95.4234 700.55 95.29C700.517 95.1567 700.483 95.0134 700.45 94.86C700.417 95.0134 700.38 95.1567 700.34 95.29C700.307 95.4234 700.27 95.5467 700.23 95.66L696.82 106H694.71L690.23 91.6H692.19C692.39 91.6 692.557 91.65 692.69 91.75C692.83 91.8434 692.923 91.9734 692.97 92.14L695.67 101.37C695.723 101.57 695.773 101.787 695.82 102.02C695.867 102.253 695.913 102.497 695.96 102.75C696.007 102.497 696.057 102.253 696.11 102.02C696.17 101.78 696.233 101.563 696.3 101.37L699.39 92.14C699.437 92.0067 699.53 91.8834 699.67 91.77C699.81 91.6567 699.977 91.6 700.17 91.6H700.85C701.057 91.6 701.223 91.6534 701.35 91.76C701.477 91.86 701.573 91.9867 701.64 92.14L704.72 101.37C704.787 101.563 704.847 101.773 704.9 102C704.96 102.22 705.013 102.453 705.06 102.7C705.107 102.453 705.15 102.22 705.19 102C705.237 101.773 705.287 101.563 705.34 101.37L708.03 92.14C708.07 91.9934 708.16 91.8667 708.3 91.76C708.447 91.6534 708.617 91.6 708.81 91.6H710.64Z" fill="black"/>
<path d="M714.331 95.8V106H712.181V95.8H714.331ZM714.691 92.72C714.691 92.9134 714.651 93.0967 714.571 93.27C714.498 93.4434 714.395 93.5967 714.261 93.73C714.128 93.8567 713.971 93.96 713.791 94.04C713.618 94.1134 713.431 94.15 713.231 94.15C713.038 94.15 712.855 94.1134 712.681 94.04C712.515 93.96 712.368 93.8567 712.241 93.73C712.115 93.5967 712.011 93.4434 711.931 93.27C711.858 93.0967 711.821 92.9134 711.821 92.72C711.821 92.52 711.858 92.3334 711.931 92.16C712.011 91.9867 712.115 91.8367 712.241 91.71C712.368 91.5767 712.515 91.4734 712.681 91.4C712.855 91.32 713.038 91.28 713.231 91.28C713.431 91.28 713.618 91.32 713.791 91.4C713.971 91.4734 714.128 91.5767 714.261 91.71C714.395 91.8367 714.498 91.9867 714.571 92.16C714.651 92.3334 714.691 92.52 714.691 92.72Z" fill="black"/>
<path d="M719.063 97.69C719.383 97.0434 719.769 96.5367 720.223 96.17C720.676 95.7967 721.219 95.61 721.853 95.61C722.073 95.61 722.279 95.6367 722.473 95.69C722.666 95.7367 722.839 95.81 722.993 95.91L722.843 97.53C722.816 97.6434 722.773 97.7234 722.713 97.77C722.659 97.81 722.586 97.83 722.493 97.83C722.393 97.83 722.249 97.8134 722.063 97.78C721.876 97.74 721.679 97.72 721.473 97.72C721.173 97.72 720.906 97.7634 720.673 97.85C720.446 97.9367 720.239 98.0634 720.053 98.23C719.873 98.3967 719.713 98.6 719.573 98.84C719.433 99.08 719.303 99.3534 719.183 99.66V106H717.033V95.8H718.283C718.509 95.8 718.666 95.8434 718.753 95.93C718.839 96.01 718.899 96.1534 718.933 96.36L719.063 97.69Z" fill="black"/>
<path d="M730.754 99.75C730.754 99.39 730.701 99.0567 730.594 98.75C730.494 98.4367 730.344 98.1667 730.144 97.94C729.944 97.7067 729.694 97.5267 729.394 97.4C729.101 97.2667 728.761 97.2 728.374 97.2C727.594 97.2 726.981 97.4234 726.534 97.87C726.087 98.3167 725.804 98.9434 725.684 99.75H730.754ZM725.624 101.07C725.651 101.65 725.741 102.153 725.894 102.58C726.047 103 726.251 103.35 726.504 103.63C726.764 103.91 727.071 104.12 727.424 104.26C727.784 104.393 728.184 104.46 728.624 104.46C729.044 104.46 729.407 104.413 729.714 104.32C730.021 104.22 730.287 104.113 730.514 104C730.741 103.88 730.934 103.773 731.094 103.68C731.254 103.58 731.401 103.53 731.534 103.53C731.707 103.53 731.841 103.597 731.934 103.73L732.544 104.52C732.291 104.82 732.004 105.073 731.684 105.28C731.364 105.487 731.024 105.657 730.664 105.79C730.304 105.917 729.934 106.007 729.554 106.06C729.174 106.12 728.804 106.15 728.444 106.15C727.737 106.15 727.081 106.033 726.474 105.8C725.874 105.56 725.351 105.21 724.904 104.75C724.464 104.29 724.117 103.72 723.864 103.04C723.617 102.36 723.494 101.577 723.494 100.69C723.494 99.9834 723.604 99.3234 723.824 98.71C724.051 98.0967 724.371 97.5634 724.784 97.11C725.204 96.6567 725.711 96.3 726.304 96.04C726.904 95.7734 727.581 95.64 728.334 95.64C728.961 95.64 729.541 95.7434 730.074 95.95C730.607 96.15 731.067 96.4467 731.454 96.84C731.841 97.2334 732.141 97.7167 732.354 98.29C732.574 98.8567 732.684 99.5034 732.684 100.23C732.684 100.563 732.647 100.787 732.574 100.9C732.501 101.013 732.367 101.07 732.174 101.07H725.624Z" fill="black"/>
<path d="M735.242 106V97.51L734.242 97.37C734.076 97.3367 733.939 97.2767 733.832 97.19C733.732 97.1034 733.682 96.98 733.682 96.82V95.94H735.242V95.08C735.242 94.5 735.326 93.98 735.492 93.52C735.666 93.06 735.909 92.67 736.222 92.35C736.542 92.03 736.929 91.7867 737.382 91.62C737.836 91.4467 738.346 91.36 738.912 91.36C739.146 91.36 739.366 91.3767 739.572 91.41C739.786 91.4434 739.992 91.4934 740.192 91.56L740.152 92.64C740.139 92.82 740.049 92.9267 739.882 92.96C739.722 92.9934 739.519 93.01 739.272 93.01C738.972 93.01 738.702 93.0467 738.462 93.12C738.222 93.1867 738.016 93.3034 737.842 93.47C737.676 93.6367 737.546 93.8567 737.452 94.13C737.366 94.4034 737.322 94.7434 737.322 95.15V95.94H740.112V97.49H737.392V106H735.242Z" fill="black"/>
<path d="M743.672 97.69C743.992 97.0434 744.379 96.5367 744.832 96.17C745.285 95.7967 745.829 95.61 746.462 95.61C746.682 95.61 746.889 95.6367 747.082 95.69C747.275 95.7367 747.449 95.81 747.602 95.91L747.452 97.53C747.425 97.6434 747.382 97.7234 747.322 97.77C747.269 97.81 747.195 97.83 747.102 97.83C747.002 97.83 746.859 97.8134 746.672 97.78C746.485 97.74 746.289 97.72 746.082 97.72C745.782 97.72 745.515 97.7634 745.282 97.85C745.055 97.9367 744.849 98.0634 744.662 98.23C744.482 98.3967 744.322 98.6 744.182 98.84C744.042 99.08 743.912 99.3534 743.792 99.66V106H741.642V95.8H742.892C743.119 95.8 743.275 95.8434 743.362 95.93C743.449 96.01 743.509 96.1534 743.542 96.36L743.672 97.69Z" fill="black"/>
<path d="M754.319 101.54C753.552 101.567 752.905 101.63 752.379 101.73C751.852 101.823 751.425 101.947 751.099 102.1C750.772 102.247 750.535 102.423 750.389 102.63C750.249 102.837 750.179 103.063 750.179 103.31C750.179 103.55 750.215 103.757 750.289 103.93C750.369 104.097 750.475 104.237 750.609 104.35C750.749 104.457 750.909 104.537 751.089 104.59C751.275 104.637 751.479 104.66 751.699 104.66C752.259 104.66 752.739 104.557 753.139 104.35C753.545 104.137 753.939 103.83 754.319 103.43V101.54ZM748.619 97.22C749.772 96.1467 751.145 95.61 752.739 95.61C753.325 95.61 753.845 95.7067 754.299 95.9C754.759 96.0867 755.142 96.3534 755.449 96.7C755.762 97.0467 755.999 97.46 756.159 97.94C756.325 98.4134 756.409 98.94 756.409 99.52V106H755.449C755.242 106 755.085 105.97 754.979 105.91C754.872 105.843 754.782 105.713 754.709 105.52L754.499 104.69C754.239 104.923 753.982 105.133 753.729 105.32C753.475 105.5 753.212 105.653 752.939 105.78C752.672 105.907 752.382 106 752.069 106.06C751.762 106.127 751.422 106.16 751.049 106.16C750.635 106.16 750.249 106.103 749.889 105.99C749.535 105.877 749.229 105.707 748.969 105.48C748.709 105.247 748.502 104.96 748.349 104.62C748.202 104.28 748.129 103.88 748.129 103.42C748.129 103.027 748.232 102.643 748.439 102.27C748.652 101.897 748.999 101.563 749.479 101.27C749.965 100.97 750.602 100.723 751.389 100.53C752.182 100.337 753.159 100.227 754.319 100.2V99.52C754.319 98.7867 754.162 98.24 753.849 97.88C753.535 97.52 753.075 97.34 752.469 97.34C752.055 97.34 751.709 97.3934 751.429 97.5C751.149 97.6 750.905 97.71 750.699 97.83C750.492 97.95 750.309 98.0634 750.149 98.17C749.989 98.27 749.819 98.32 749.639 98.32C749.492 98.32 749.365 98.2834 749.259 98.21C749.159 98.13 749.075 98.0334 749.009 97.92L748.619 97.22Z" fill="black"/>
<path d="M758.927 106V95.8H760.227C760.521 95.8 760.707 95.9367 760.787 96.21L760.927 97.1C761.114 96.8867 761.307 96.6934 761.507 96.52C761.707 96.34 761.921 96.1867 762.147 96.06C762.381 95.9267 762.627 95.8234 762.887 95.75C763.154 95.6767 763.441 95.64 763.747 95.64C764.074 95.64 764.374 95.6867 764.647 95.78C764.921 95.8734 765.161 96.0067 765.367 96.18C765.581 96.3534 765.764 96.5634 765.917 96.81C766.071 97.0567 766.197 97.3334 766.297 97.64C766.451 97.2867 766.644 96.9834 766.877 96.73C767.111 96.4767 767.371 96.27 767.657 96.11C767.944 95.95 768.247 95.8334 768.567 95.76C768.894 95.68 769.224 95.64 769.557 95.64C770.104 95.64 770.591 95.7267 771.017 95.9C771.451 96.0734 771.814 96.3267 772.107 96.66C772.407 96.9867 772.634 97.39 772.787 97.87C772.941 98.35 773.017 98.8967 773.017 99.51V106H770.867V99.51C770.867 98.79 770.711 98.25 770.397 97.89C770.091 97.5234 769.634 97.34 769.027 97.34C768.754 97.34 768.497 97.3867 768.257 97.48C768.017 97.5734 767.807 97.71 767.627 97.89C767.447 98.07 767.304 98.2967 767.197 98.57C767.097 98.8367 767.047 99.15 767.047 99.51V106H764.897V99.51C764.897 98.7634 764.747 98.2167 764.447 97.87C764.147 97.5167 763.707 97.34 763.127 97.34C762.727 97.34 762.357 97.4434 762.017 97.65C761.677 97.85 761.364 98.1267 761.077 98.48V106H758.927Z" fill="black"/>
<path d="M782.219 99.75C782.219 99.39 782.165 99.0567 782.059 98.75C781.959 98.4367 781.809 98.1667 781.609 97.94C781.409 97.7067 781.159 97.5267 780.859 97.4C780.565 97.2667 780.225 97.2 779.839 97.2C779.059 97.2 778.445 97.4234 777.999 97.87C777.552 98.3167 777.269 98.9434 777.149 99.75H782.219ZM777.089 101.07C777.115 101.65 777.205 102.153 777.359 102.58C777.512 103 777.715 103.35 777.969 103.63C778.229 103.91 778.535 104.12 778.889 104.26C779.249 104.393 779.649 104.46 780.089 104.46C780.509 104.46 780.872 104.413 781.179 104.32C781.485 104.22 781.752 104.113 781.979 104C782.205 103.88 782.399 103.773 782.559 103.68C782.719 103.58 782.865 103.53 782.999 103.53C783.172 103.53 783.305 103.597 783.399 103.73L784.009 104.52C783.755 104.82 783.469 105.073 783.149 105.28C782.829 105.487 782.489 105.657 782.129 105.79C781.769 105.917 781.399 106.007 781.019 106.06C780.639 106.12 780.269 106.15 779.909 106.15C779.202 106.15 778.545 106.033 777.939 105.8C777.339 105.56 776.815 105.21 776.369 104.75C775.929 104.29 775.582 103.72 775.329 103.04C775.082 102.36 774.959 101.577 774.959 100.69C774.959 99.9834 775.069 99.3234 775.289 98.71C775.515 98.0967 775.835 97.5634 776.249 97.11C776.669 96.6567 777.175 96.3 777.769 96.04C778.369 95.7734 779.045 95.64 779.799 95.64C780.425 95.64 781.005 95.7434 781.539 95.95C782.072 96.15 782.532 96.4467 782.919 96.84C783.305 97.2334 783.605 97.7167 783.819 98.29C784.039 98.8567 784.149 99.5034 784.149 100.23C784.149 100.563 784.112 100.787 784.039 100.9C783.965 101.013 783.832 101.07 783.639 101.07H777.089Z" fill="black"/>
<path d="M792.244 97.65C792.19 97.7434 792.13 97.81 792.064 97.85C791.997 97.89 791.914 97.91 791.814 97.91C791.7 97.91 791.577 97.8767 791.444 97.81C791.31 97.7367 791.154 97.6567 790.974 97.57C790.794 97.4834 790.58 97.4067 790.334 97.34C790.094 97.2667 789.81 97.23 789.484 97.23C789.217 97.23 788.974 97.2634 788.754 97.33C788.54 97.39 788.357 97.48 788.204 97.6C788.057 97.7134 787.944 97.85 787.864 98.01C787.784 98.1634 787.744 98.33 787.744 98.51C787.744 98.75 787.817 98.95 787.964 99.11C788.11 99.27 788.304 99.41 788.544 99.53C788.784 99.6434 789.057 99.7467 789.364 99.84C789.67 99.9334 789.984 100.033 790.304 100.14C790.624 100.247 790.937 100.37 791.244 100.51C791.55 100.65 791.824 100.823 792.064 101.03C792.304 101.23 792.497 101.477 792.644 101.77C792.79 102.057 792.864 102.407 792.864 102.82C792.864 103.3 792.777 103.743 792.604 104.15C792.43 104.557 792.177 104.91 791.844 105.21C791.51 105.51 791.094 105.743 790.594 105.91C790.1 106.077 789.534 106.16 788.894 106.16C788.54 106.16 788.197 106.127 787.864 106.06C787.537 106 787.224 105.917 786.924 105.81C786.63 105.697 786.354 105.563 786.094 105.41C785.84 105.257 785.614 105.09 785.414 104.91L785.914 104.09C785.974 103.99 786.047 103.913 786.134 103.86C786.227 103.8 786.34 103.77 786.474 103.77C786.614 103.77 786.75 103.817 786.884 103.91C787.024 103.997 787.184 104.093 787.364 104.2C787.55 104.307 787.774 104.407 788.034 104.5C788.294 104.587 788.617 104.63 789.004 104.63C789.324 104.63 789.6 104.593 789.834 104.52C790.067 104.44 790.26 104.333 790.414 104.2C790.567 104.067 790.68 103.917 790.754 103.75C790.827 103.577 790.864 103.393 790.864 103.2C790.864 102.94 790.79 102.727 790.644 102.56C790.497 102.393 790.3 102.25 790.054 102.13C789.814 102.01 789.537 101.903 789.224 101.81C788.917 101.717 788.604 101.617 788.284 101.51C787.964 101.403 787.647 101.28 787.334 101.14C787.027 101 786.75 100.823 786.504 100.61C786.264 100.39 786.07 100.127 785.924 99.82C785.777 99.5067 785.704 99.1267 785.704 98.68C785.704 98.2734 785.784 97.8867 785.944 97.52C786.11 97.1534 786.35 96.83 786.664 96.55C786.984 96.27 787.374 96.05 787.834 95.89C788.3 95.7234 788.837 95.64 789.444 95.64C790.13 95.64 790.754 95.75 791.314 95.97C791.874 96.19 792.344 96.49 792.724 96.87L792.244 97.65Z" fill="black"/>
<path d="M799.745 99.07H804.815V100.89H799.745V99.07Z" fill="black"/>
<path d="M816.405 93.55H811.915V106H809.585V93.55H805.085V91.6H816.405V93.55Z" fill="black"/>
<path d="M822.277 99.75C822.277 99.39 822.224 99.0567 822.117 98.75C822.017 98.4367 821.867 98.1667 821.667 97.94C821.467 97.7067 821.217 97.5267 820.917 97.4C820.624 97.2667 820.284 97.2 819.897 97.2C819.117 97.2 818.504 97.4234 818.057 97.87C817.611 98.3167 817.327 98.9434 817.207 99.75H822.277ZM817.147 101.07C817.174 101.65 817.264 102.153 817.417 102.58C817.571 103 817.774 103.35 818.027 103.63C818.287 103.91 818.594 104.12 818.947 104.26C819.307 104.393 819.707 104.46 820.147 104.46C820.567 104.46 820.931 104.413 821.237 104.32C821.544 104.22 821.811 104.113 822.037 104C822.264 103.88 822.457 103.773 822.617 103.68C822.777 103.58 822.924 103.53 823.057 103.53C823.231 103.53 823.364 103.597 823.457 103.73L824.067 104.52C823.814 104.82 823.527 105.073 823.207 105.28C822.887 105.487 822.547 105.657 822.187 105.79C821.827 105.917 821.457 106.007 821.077 106.06C820.697 106.12 820.327 106.15 819.967 106.15C819.261 106.15 818.604 106.033 817.997 105.8C817.397 105.56 816.874 105.21 816.427 104.75C815.987 104.29 815.641 103.72 815.387 103.04C815.141 102.36 815.017 101.577 815.017 100.69C815.017 99.9834 815.127 99.3234 815.347 98.71C815.574 98.0967 815.894 97.5634 816.307 97.11C816.727 96.6567 817.234 96.3 817.827 96.04C818.427 95.7734 819.104 95.64 819.857 95.64C820.484 95.64 821.064 95.7434 821.597 95.95C822.131 96.15 822.591 96.4467 822.977 96.84C823.364 97.2334 823.664 97.7167 823.877 98.29C824.097 98.8567 824.207 99.5034 824.207 100.23C824.207 100.563 824.171 100.787 824.097 100.9C824.024 101.013 823.891 101.07 823.697 101.07H817.147Z" fill="black"/>
<path d="M832.302 97.65C832.249 97.7434 832.189 97.81 832.122 97.85C832.056 97.89 831.972 97.91 831.872 97.91C831.759 97.91 831.636 97.8767 831.502 97.81C831.369 97.7367 831.212 97.6567 831.032 97.57C830.852 97.4834 830.639 97.4067 830.392 97.34C830.152 97.2667 829.869 97.23 829.542 97.23C829.276 97.23 829.032 97.2634 828.812 97.33C828.599 97.39 828.416 97.48 828.262 97.6C828.116 97.7134 828.002 97.85 827.922 98.01C827.842 98.1634 827.802 98.33 827.802 98.51C827.802 98.75 827.876 98.95 828.022 99.11C828.169 99.27 828.362 99.41 828.602 99.53C828.842 99.6434 829.116 99.7467 829.422 99.84C829.729 99.9334 830.042 100.033 830.362 100.14C830.682 100.247 830.996 100.37 831.302 100.51C831.609 100.65 831.882 100.823 832.122 101.03C832.362 101.23 832.556 101.477 832.702 101.77C832.849 102.057 832.922 102.407 832.922 102.82C832.922 103.3 832.836 103.743 832.662 104.15C832.489 104.557 832.236 104.91 831.902 105.21C831.569 105.51 831.152 105.743 830.652 105.91C830.159 106.077 829.592 106.16 828.952 106.16C828.599 106.16 828.256 106.127 827.922 106.06C827.596 106 827.282 105.917 826.982 105.81C826.689 105.697 826.412 105.563 826.152 105.41C825.899 105.257 825.672 105.09 825.472 104.91L825.972 104.09C826.032 103.99 826.106 103.913 826.192 103.86C826.286 103.8 826.399 103.77 826.532 103.77C826.672 103.77 826.809 103.817 826.942 103.91C827.082 103.997 827.242 104.093 827.422 104.2C827.609 104.307 827.832 104.407 828.092 104.5C828.352 104.587 828.676 104.63 829.062 104.63C829.382 104.63 829.659 104.593 829.892 104.52C830.126 104.44 830.319 104.333 830.472 104.2C830.626 104.067 830.739 103.917 830.812 103.75C830.886 103.577 830.922 103.393 830.922 103.2C830.922 102.94 830.849 102.727 830.702 102.56C830.556 102.393 830.359 102.25 830.112 102.13C829.872 102.01 829.596 101.903 829.282 101.81C828.976 101.717 828.662 101.617 828.342 101.51C828.022 101.403 827.706 101.28 827.392 101.14C827.086 101 826.809 100.823 826.562 100.61C826.322 100.39 826.129 100.127 825.982 99.82C825.836 99.5067 825.762 99.1267 825.762 98.68C825.762 98.2734 825.842 97.8867 826.002 97.52C826.169 97.1534 826.409 96.83 826.722 96.55C827.042 96.27 827.432 96.05 827.892 95.89C828.359 95.7234 828.896 95.64 829.502 95.64C830.189 95.64 830.812 95.75 831.372 95.97C831.932 96.19 832.402 96.49 832.782 96.87L832.302 97.65Z" fill="black"/>
<path d="M838.213 106.16C837.366 106.16 836.713 105.923 836.253 105.45C835.799 104.97 835.573 104.297 835.573 103.43V97.49H834.453C834.333 97.49 834.229 97.4534 834.143 97.38C834.056 97.3 834.013 97.1834 834.013 97.03V96.16L835.663 95.92L836.133 92.97C836.166 92.8567 836.223 92.7667 836.303 92.7C836.383 92.6267 836.489 92.59 836.623 92.59H837.723V95.94H840.553V97.49H837.723V103.28C837.723 103.647 837.813 103.927 837.993 104.12C838.173 104.313 838.413 104.41 838.713 104.41C838.879 104.41 839.023 104.39 839.143 104.35C839.263 104.303 839.366 104.257 839.453 104.21C839.54 104.157 839.613 104.11 839.673 104.07C839.739 104.023 839.803 104 839.863 104C839.983 104 840.079 104.067 840.153 104.2L840.793 105.25C840.459 105.543 840.066 105.77 839.613 105.93C839.159 106.083 838.693 106.16 838.213 106.16Z" fill="black"/>
<path d="M929.19 7.93998C929.71 7.93998 930.167 7.87331 930.56 7.73998C930.96 7.60664 931.29 7.41998 931.55 7.17998C931.817 6.93331 932.017 6.63664 932.15 6.28998C932.283 5.94331 932.35 5.55664 932.35 5.12998C932.35 4.70998 932.283 4.33331 932.15 3.99998C932.023 3.66664 931.83 3.38331 931.57 3.14998C931.31 2.91664 930.98 2.73998 930.58 2.61998C930.187 2.49331 929.723 2.42998 929.19 2.42998H927.05V7.93998H929.19ZM929.19 0.599976C930.13 0.599976 930.943 0.709976 931.63 0.929976C932.323 1.14998 932.893 1.45998 933.34 1.85998C933.793 2.25331 934.13 2.72998 934.35 3.28998C934.57 3.84331 934.68 4.45664 934.68 5.12998C934.68 5.81664 934.563 6.44664 934.33 7.01998C934.097 7.58664 933.75 8.07664 933.29 8.48998C932.83 8.89664 932.257 9.21664 931.57 9.44998C930.89 9.67664 930.097 9.78998 929.19 9.78998H927.05V15H924.71V0.599976H929.19Z" fill="black"/>
<path d="M938.371 6.68998C938.691 6.04331 939.078 5.53664 939.531 5.16998C939.985 4.79664 940.528 4.60998 941.161 4.60998C941.381 4.60998 941.588 4.63664 941.781 4.68998C941.975 4.73664 942.148 4.80998 942.301 4.90998L942.151 6.52998C942.125 6.64331 942.081 6.72331 942.021 6.76998C941.968 6.80998 941.895 6.82998 941.801 6.82998C941.701 6.82998 941.558 6.81331 941.371 6.77998C941.185 6.73998 940.988 6.71998 940.781 6.71998C940.481 6.71998 940.215 6.76331 939.981 6.84998C939.755 6.93664 939.548 7.06331 939.361 7.22998C939.181 7.39664 939.021 7.59998 938.881 7.83998C938.741 8.07998 938.611 8.35331 938.491 8.65998V15H936.341V4.79998H937.591C937.818 4.79998 937.975 4.84331 938.061 4.92998C938.148 5.00998 938.208 5.15331 938.241 5.35998L938.371 6.68998Z" fill="black"/>
<path d="M947.782 4.63998C948.536 4.63998 949.216 4.76331 949.822 5.00998C950.436 5.25664 950.956 5.60664 951.382 6.05998C951.816 6.51331 952.149 7.06331 952.382 7.70998C952.616 8.35664 952.732 9.08331 952.732 9.88998C952.732 10.6966 952.616 11.4233 952.382 12.07C952.149 12.7166 951.816 13.27 951.382 13.73C950.956 14.1833 950.436 14.5333 949.822 14.78C949.216 15.0266 948.536 15.15 947.782 15.15C947.022 15.15 946.336 15.0266 945.722 14.78C945.116 14.5333 944.596 14.1833 944.162 13.73C943.729 13.27 943.396 12.7166 943.162 12.07C942.929 11.4233 942.812 10.6966 942.812 9.88998C942.812 9.08331 942.929 8.35664 943.162 7.70998C943.396 7.06331 943.729 6.51331 944.162 6.05998C944.596 5.60664 945.116 5.25664 945.722 5.00998C946.336 4.76331 947.022 4.63998 947.782 4.63998ZM947.782 13.47C948.702 13.47 949.386 13.1633 949.832 12.55C950.286 11.93 950.512 11.0466 950.512 9.89998C950.512 8.75331 950.286 7.86998 949.832 7.24998C949.386 6.62331 948.702 6.30998 947.782 6.30998C946.849 6.30998 946.156 6.62331 945.702 7.24998C945.249 7.86998 945.022 8.75331 945.022 9.89998C945.022 11.0466 945.249 11.93 945.702 12.55C946.156 13.1633 946.849 13.47 947.782 13.47Z" fill="black"/>
<path d="M957.873 15.16C957.026 15.16 956.373 14.9233 955.913 14.45C955.46 13.97 955.233 13.2966 955.233 12.43V6.48998H954.113C953.993 6.48998 953.89 6.45331 953.803 6.37998C953.716 6.29998 953.673 6.18331 953.673 6.02998V5.15998L955.323 4.91998L955.793 1.96998C955.826 1.85664 955.883 1.76664 955.963 1.69998C956.043 1.62664 956.15 1.58998 956.283 1.58998H957.383V4.93998H960.213V6.48998H957.383V12.28C957.383 12.6466 957.473 12.9266 957.653 13.12C957.833 13.3133 958.073 13.41 958.373 13.41C958.54 13.41 958.683 13.39 958.803 13.35C958.923 13.3033 959.026 13.2566 959.113 13.21C959.2 13.1566 959.273 13.11 959.333 13.07C959.4 13.0233 959.463 13 959.523 13C959.643 13 959.74 13.0666 959.813 13.2L960.453 14.25C960.12 14.5433 959.726 14.77 959.273 14.93C958.82 15.0833 958.353 15.16 957.873 15.16Z" fill="black"/>
<path d="M966.24 4.63998C966.993 4.63998 967.673 4.76331 968.28 5.00998C968.893 5.25664 969.413 5.60664 969.84 6.05998C970.273 6.51331 970.606 7.06331 970.84 7.70998C971.073 8.35664 971.19 9.08331 971.19 9.88998C971.19 10.6966 971.073 11.4233 970.84 12.07C970.606 12.7166 970.273 13.27 969.84 13.73C969.413 14.1833 968.893 14.5333 968.28 14.78C967.673 15.0266 966.993 15.15 966.24 15.15C965.48 15.15 964.793 15.0266 964.18 14.78C963.573 14.5333 963.053 14.1833 962.62 13.73C962.186 13.27 961.853 12.7166 961.62 12.07C961.386 11.4233 961.27 10.6966 961.27 9.88998C961.27 9.08331 961.386 8.35664 961.62 7.70998C961.853 7.06331 962.186 6.51331 962.62 6.05998C963.053 5.60664 963.573 5.25664 964.18 5.00998C964.793 4.76331 965.48 4.63998 966.24 4.63998ZM966.24 13.47C967.16 13.47 967.843 13.1633 968.29 12.55C968.743 11.93 968.97 11.0466 968.97 9.89998C968.97 8.75331 968.743 7.86998 968.29 7.24998C967.843 6.62331 967.16 6.30998 966.24 6.30998C965.306 6.30998 964.613 6.62331 964.16 7.24998C963.706 7.86998 963.48 8.75331 963.48 9.89998C963.48 11.0466 963.706 11.93 964.16 12.55C964.613 13.1633 965.306 13.47 966.24 13.47Z" fill="black"/>
<path d="M976.33 15.16C975.483 15.16 974.83 14.9233 974.37 14.45C973.917 13.97 973.69 13.2966 973.69 12.43V6.48998H972.57C972.45 6.48998 972.347 6.45331 972.26 6.37998C972.173 6.29998 972.13 6.18331 972.13 6.02998V5.15998L973.78 4.91998L974.25 1.96998C974.283 1.85664 974.34 1.76664 974.42 1.69998C974.5 1.62664 974.607 1.58998 974.74 1.58998H975.84V4.93998H978.67V6.48998H975.84V12.28C975.84 12.6466 975.93 12.9266 976.11 13.12C976.29 13.3133 976.53 13.41 976.83 13.41C976.997 13.41 977.14 13.39 977.26 13.35C977.38 13.3033 977.483 13.2566 977.57 13.21C977.657 13.1566 977.73 13.11 977.79 13.07C977.857 13.0233 977.92 13 977.98 13C978.1 13 978.197 13.0666 978.27 13.2L978.91 14.25C978.577 14.5433 978.183 14.77 977.73 14.93C977.277 15.0833 976.81 15.16 976.33 15.16Z" fill="black"/>
<path d="M989.415 4.79998L983.795 17.9C983.721 18.0533 983.631 18.1733 983.525 18.26C983.425 18.3466 983.268 18.39 983.055 18.39H981.465L983.345 14.31L979.185 4.79998H981.055C981.235 4.79998 981.371 4.84331 981.465 4.92998C981.565 5.00998 981.638 5.10664 981.685 5.21998L984.115 11.01C984.175 11.1766 984.228 11.3433 984.275 11.51C984.328 11.67 984.378 11.8366 984.425 12.01C984.478 11.8366 984.531 11.6666 984.585 11.5C984.638 11.3333 984.698 11.1666 984.765 11L987.095 5.21998C987.141 5.09998 987.218 4.99998 987.325 4.91998C987.438 4.83998 987.561 4.79998 987.695 4.79998H989.415Z" fill="black"/>
<path d="M992.964 12.44C993.264 12.8266 993.591 13.1 993.944 13.26C994.304 13.4133 994.701 13.49 995.134 13.49C995.974 13.49 996.627 13.1833 997.094 12.57C997.567 11.9566 997.804 11.0433 997.804 9.82998C997.804 9.20331 997.751 8.66998 997.644 8.22998C997.537 7.78331 997.384 7.41998 997.184 7.13998C996.984 6.85998 996.741 6.65664 996.454 6.52998C996.167 6.40331 995.844 6.33998 995.484 6.33998C994.937 6.33998 994.464 6.45998 994.064 6.69998C993.671 6.93331 993.304 7.26998 992.964 7.70998V12.44ZM992.854 6.27998C993.281 5.77998 993.764 5.37664 994.304 5.06998C994.851 4.76331 995.484 4.60998 996.204 4.60998C996.777 4.60998 997.297 4.72664 997.764 4.95998C998.231 5.18664 998.631 5.51998 998.964 5.95998C999.297 6.39998 999.554 6.94664 999.734 7.59998C999.921 8.24664 1000.01 8.98998 1000.01 9.82998C1000.01 10.5833 999.911 11.2866 999.704 11.94C999.504 12.5866 999.214 13.15 998.834 13.63C998.454 14.1033 997.994 14.4766 997.454 14.75C996.914 15.0166 996.304 15.15 995.624 15.15C995.024 15.15 994.514 15.0533 994.094 14.86C993.681 14.6666 993.304 14.4 992.964 14.06V18.39H990.814V4.79998H992.114C992.407 4.79998 992.594 4.93664 992.674 5.20998L992.854 6.27998Z" fill="black"/>
<path d="M1008.79 8.74998C1008.79 8.38998 1008.74 8.05664 1008.63 7.74998C1008.53 7.43664 1008.38 7.16664 1008.18 6.93998C1007.98 6.70664 1007.73 6.52664 1007.43 6.39998C1007.14 6.26664 1006.8 6.19998 1006.41 6.19998C1005.63 6.19998 1005.02 6.42331 1004.57 6.86998C1004.13 7.31664 1003.84 7.94331 1003.72 8.74998H1008.79ZM1003.66 10.07C1003.69 10.65 1003.78 11.1533 1003.93 11.58C1004.09 12 1004.29 12.35 1004.54 12.63C1004.8 12.91 1005.11 13.12 1005.46 13.26C1005.82 13.3933 1006.22 13.46 1006.66 13.46C1007.08 13.46 1007.45 13.4133 1007.75 13.32C1008.06 13.22 1008.33 13.1133 1008.55 13C1008.78 12.88 1008.97 12.7733 1009.13 12.68C1009.29 12.58 1009.44 12.53 1009.57 12.53C1009.75 12.53 1009.88 12.5966 1009.97 12.73L1010.58 13.52C1010.33 13.82 1010.04 14.0733 1009.72 14.28C1009.4 14.4866 1009.06 14.6566 1008.7 14.79C1008.34 14.9166 1007.97 15.0066 1007.59 15.06C1007.21 15.12 1006.84 15.15 1006.48 15.15C1005.78 15.15 1005.12 15.0333 1004.51 14.8C1003.91 14.56 1003.39 14.21 1002.94 13.75C1002.5 13.29 1002.16 12.72 1001.9 12.04C1001.66 11.36 1001.53 10.5766 1001.53 9.68998C1001.53 8.98331 1001.64 8.32331 1001.86 7.70998C1002.09 7.09664 1002.41 6.56331 1002.82 6.10998C1003.24 5.65664 1003.75 5.29998 1004.34 5.03998C1004.94 4.77331 1005.62 4.63998 1006.37 4.63998C1007 4.63998 1007.58 4.74331 1008.11 4.94998C1008.65 5.14998 1009.11 5.44664 1009.49 5.83998C1009.88 6.23331 1010.18 6.71664 1010.39 7.28998C1010.61 7.85664 1010.72 8.50331 1010.72 9.22998C1010.72 9.56331 1010.69 9.78664 1010.61 9.89998C1010.54 10.0133 1010.41 10.07 1010.21 10.07H1003.66Z" fill="black"/>
<path d="M1018.82 6.64998C1018.76 6.74331 1018.7 6.80998 1018.64 6.84998C1018.57 6.88998 1018.49 6.90998 1018.39 6.90998C1018.27 6.90998 1018.15 6.87664 1018.02 6.80998C1017.88 6.73664 1017.73 6.65664 1017.55 6.56998C1017.37 6.48331 1017.15 6.40664 1016.91 6.33998C1016.67 6.26664 1016.38 6.22998 1016.06 6.22998C1015.79 6.22998 1015.55 6.26331 1015.33 6.32998C1015.11 6.38998 1014.93 6.47998 1014.78 6.59998C1014.63 6.71331 1014.52 6.84998 1014.44 7.00998C1014.36 7.16331 1014.32 7.32998 1014.32 7.50998C1014.32 7.74998 1014.39 7.94998 1014.54 8.10998C1014.68 8.26998 1014.88 8.40998 1015.12 8.52998C1015.36 8.64331 1015.63 8.74664 1015.94 8.83998C1016.24 8.93331 1016.56 9.03331 1016.88 9.13998C1017.2 9.24664 1017.51 9.36998 1017.82 9.50998C1018.12 9.64998 1018.4 9.82331 1018.64 10.03C1018.88 10.23 1019.07 10.4766 1019.22 10.77C1019.36 11.0566 1019.44 11.4066 1019.44 11.82C1019.44 12.3 1019.35 12.7433 1019.18 13.15C1019 13.5566 1018.75 13.91 1018.42 14.21C1018.08 14.51 1017.67 14.7433 1017.17 14.91C1016.67 15.0766 1016.11 15.16 1015.47 15.16C1015.11 15.16 1014.77 15.1266 1014.44 15.06C1014.11 15 1013.8 14.9166 1013.5 14.81C1013.2 14.6966 1012.93 14.5633 1012.67 14.41C1012.41 14.2566 1012.19 14.09 1011.99 13.91L1012.49 13.09C1012.55 12.99 1012.62 12.9133 1012.71 12.86C1012.8 12.8 1012.91 12.77 1013.05 12.77C1013.19 12.77 1013.32 12.8166 1013.46 12.91C1013.6 12.9966 1013.76 13.0933 1013.94 13.2C1014.12 13.3066 1014.35 13.4066 1014.61 13.5C1014.87 13.5866 1015.19 13.63 1015.58 13.63C1015.9 13.63 1016.17 13.5933 1016.41 13.52C1016.64 13.44 1016.83 13.3333 1016.99 13.2C1017.14 13.0666 1017.25 12.9166 1017.33 12.75C1017.4 12.5766 1017.44 12.3933 1017.44 12.2C1017.44 11.94 1017.36 11.7266 1017.22 11.56C1017.07 11.3933 1016.87 11.25 1016.63 11.13C1016.39 11.01 1016.11 10.9033 1015.8 10.81C1015.49 10.7166 1015.18 10.6166 1014.86 10.51C1014.54 10.4033 1014.22 10.28 1013.91 10.14C1013.6 9.99998 1013.32 9.82331 1013.08 9.60998C1012.84 9.38998 1012.64 9.12664 1012.5 8.81998C1012.35 8.50664 1012.28 8.12664 1012.28 7.67998C1012.28 7.27331 1012.36 6.88664 1012.52 6.51998C1012.68 6.15331 1012.92 5.82998 1013.24 5.54998C1013.56 5.26998 1013.95 5.04998 1014.41 4.88998C1014.87 4.72331 1015.41 4.63998 1016.02 4.63998C1016.7 4.63998 1017.33 4.74998 1017.89 4.96998C1018.45 5.18998 1018.92 5.48998 1019.3 5.86998L1018.82 6.64998Z" fill="black"/>
<path d="M1026.32 8.06998H1031.39V9.88998H1026.32V8.06998Z" fill="black"/>
<path d="M1042.98 2.54998H1038.49V15H1036.16V2.54998H1031.66V0.599976H1042.98V2.54998Z" fill="black"/>
<path d="M1048.85 8.74998C1048.85 8.38998 1048.8 8.05664 1048.69 7.74998C1048.59 7.43664 1048.44 7.16664 1048.24 6.93998C1048.04 6.70664 1047.79 6.52664 1047.49 6.39998C1047.2 6.26664 1046.86 6.19998 1046.47 6.19998C1045.69 6.19998 1045.08 6.42331 1044.63 6.86998C1044.18 7.31664 1043.9 7.94331 1043.78 8.74998H1048.85ZM1043.72 10.07C1043.75 10.65 1043.84 11.1533 1043.99 11.58C1044.14 12 1044.35 12.35 1044.6 12.63C1044.86 12.91 1045.17 13.12 1045.52 13.26C1045.88 13.3933 1046.28 13.46 1046.72 13.46C1047.14 13.46 1047.5 13.4133 1047.81 13.32C1048.12 13.22 1048.38 13.1133 1048.61 13C1048.84 12.88 1049.03 12.7733 1049.19 12.68C1049.35 12.58 1049.5 12.53 1049.63 12.53C1049.8 12.53 1049.94 12.5966 1050.03 12.73L1050.64 13.52C1050.39 13.82 1050.1 14.0733 1049.78 14.28C1049.46 14.4866 1049.12 14.6566 1048.76 14.79C1048.4 14.9166 1048.03 15.0066 1047.65 15.06C1047.27 15.12 1046.9 15.15 1046.54 15.15C1045.83 15.15 1045.18 15.0333 1044.57 14.8C1043.97 14.56 1043.45 14.21 1043 13.75C1042.56 13.29 1042.21 12.72 1041.96 12.04C1041.71 11.36 1041.59 10.5766 1041.59 9.68998C1041.59 8.98331 1041.7 8.32331 1041.92 7.70998C1042.15 7.09664 1042.47 6.56331 1042.88 6.10998C1043.3 5.65664 1043.81 5.29998 1044.4 5.03998C1045 4.77331 1045.68 4.63998 1046.43 4.63998C1047.06 4.63998 1047.64 4.74331 1048.17 4.94998C1048.7 5.14998 1049.16 5.44664 1049.55 5.83998C1049.94 6.23331 1050.24 6.71664 1050.45 7.28998C1050.67 7.85664 1050.78 8.50331 1050.78 9.22998C1050.78 9.56331 1050.74 9.78664 1050.67 9.89998C1050.6 10.0133 1050.46 10.07 1050.27 10.07H1043.72Z" fill="black"/>
<path d="M1058.88 6.64998C1058.82 6.74331 1058.76 6.80998 1058.7 6.84998C1058.63 6.88998 1058.55 6.90998 1058.45 6.90998C1058.33 6.90998 1058.21 6.87664 1058.08 6.80998C1057.94 6.73664 1057.79 6.65664 1057.61 6.56998C1057.43 6.48331 1057.21 6.40664 1056.97 6.33998C1056.73 6.26664 1056.44 6.22998 1056.12 6.22998C1055.85 6.22998 1055.61 6.26331 1055.39 6.32998C1055.17 6.38998 1054.99 6.47998 1054.84 6.59998C1054.69 6.71331 1054.58 6.84998 1054.5 7.00998C1054.42 7.16331 1054.38 7.32998 1054.38 7.50998C1054.38 7.74998 1054.45 7.94998 1054.6 8.10998C1054.74 8.26998 1054.94 8.40998 1055.18 8.52998C1055.42 8.64331 1055.69 8.74664 1056 8.83998C1056.3 8.93331 1056.62 9.03331 1056.94 9.13998C1057.26 9.24664 1057.57 9.36998 1057.88 9.50998C1058.18 9.64998 1058.46 9.82331 1058.7 10.03C1058.94 10.23 1059.13 10.4766 1059.28 10.77C1059.42 11.0566 1059.5 11.4066 1059.5 11.82C1059.5 12.3 1059.41 12.7433 1059.24 13.15C1059.06 13.5566 1058.81 13.91 1058.48 14.21C1058.14 14.51 1057.73 14.7433 1057.23 14.91C1056.73 15.0766 1056.17 15.16 1055.53 15.16C1055.17 15.16 1054.83 15.1266 1054.5 15.06C1054.17 15 1053.86 14.9166 1053.56 14.81C1053.26 14.6966 1052.99 14.5633 1052.73 14.41C1052.47 14.2566 1052.25 14.09 1052.05 13.91L1052.55 13.09C1052.61 12.99 1052.68 12.9133 1052.77 12.86C1052.86 12.8 1052.97 12.77 1053.11 12.77C1053.25 12.77 1053.38 12.8166 1053.52 12.91C1053.66 12.9966 1053.82 13.0933 1054 13.2C1054.18 13.3066 1054.41 13.4066 1054.67 13.5C1054.93 13.5866 1055.25 13.63 1055.64 13.63C1055.96 13.63 1056.23 13.5933 1056.47 13.52C1056.7 13.44 1056.89 13.3333 1057.05 13.2C1057.2 13.0666 1057.31 12.9166 1057.39 12.75C1057.46 12.5766 1057.5 12.3933 1057.5 12.2C1057.5 11.94 1057.42 11.7266 1057.28 11.56C1057.13 11.3933 1056.93 11.25 1056.69 11.13C1056.45 11.01 1056.17 10.9033 1055.86 10.81C1055.55 10.7166 1055.24 10.6166 1054.92 10.51C1054.6 10.4033 1054.28 10.28 1053.97 10.14C1053.66 9.99998 1053.38 9.82331 1053.14 9.60998C1052.9 9.38998 1052.7 9.12664 1052.56 8.81998C1052.41 8.50664 1052.34 8.12664 1052.34 7.67998C1052.34 7.27331 1052.42 6.88664 1052.58 6.51998C1052.74 6.15331 1052.98 5.82998 1053.3 5.54998C1053.62 5.26998 1054.01 5.04998 1054.47 4.88998C1054.93 4.72331 1055.47 4.63998 1056.08 4.63998C1056.76 4.63998 1057.39 4.74998 1057.95 4.96998C1058.51 5.18998 1058.98 5.48998 1059.36 5.86998L1058.88 6.64998Z" fill="black"/>
<path d="M1064.79 15.16C1063.94 15.16 1063.29 14.9233 1062.83 14.45C1062.37 13.97 1062.15 13.2966 1062.15 12.43V6.48998H1061.03C1060.91 6.48998 1060.8 6.45331 1060.72 6.37998C1060.63 6.29998 1060.59 6.18331 1060.59 6.02998V5.15998L1062.24 4.91998L1062.71 1.96998C1062.74 1.85664 1062.8 1.76664 1062.88 1.69998C1062.96 1.62664 1063.06 1.58998 1063.2 1.58998H1064.3V4.93998H1067.13V6.48998H1064.3V12.28C1064.3 12.6466 1064.39 12.9266 1064.57 13.12C1064.75 13.3133 1064.99 13.41 1065.29 13.41C1065.45 13.41 1065.6 13.39 1065.72 13.35C1065.84 13.3033 1065.94 13.2566 1066.03 13.21C1066.11 13.1566 1066.19 13.11 1066.25 13.07C1066.31 13.0233 1066.38 13 1066.44 13C1066.56 13 1066.65 13.0666 1066.73 13.2L1067.37 14.25C1067.03 14.5433 1066.64 14.77 1066.19 14.93C1065.73 15.0833 1065.27 15.16 1064.79 15.16Z" fill="black"/>
</svg>
